<svg width="54" height="55" viewBox="0 0 54 55" fill="none" xmlns="http://www.w3.org/2000/svg">
<g id="Layer_1" clip-path="url(#clip0_226_226)">
<path id="Vector" d="M25.1334 0.68522C25.0087 0.698339 24.6086 0.744258 24.2478 0.777057C19.1179 1.31496 14.0666 3.48624 9.94696 6.93668C9.186 7.56641 7.45416 9.29819 6.8244 10.0591C3.4132 14.1327 1.41895 18.7049 0.684234 24.1167C0.520233 25.3171 0.520233 29.3711 0.684234 30.5715C1.41895 35.9833 3.4132 40.5555 6.8244 44.6291C7.45416 45.39 9.186 47.1218 9.94696 47.7515C14.0207 51.1626 18.5931 53.1568 24.0051 53.8915C25.2055 54.0555 29.2596 54.0555 30.4601 53.8915C35.8721 53.1568 40.4444 51.1626 44.5182 47.7515C45.2792 47.1218 47.011 45.39 47.6408 44.6291C51.052 40.5555 53.0462 35.9833 53.7809 30.5715C53.9449 29.3711 53.9449 25.3171 53.7809 24.1167C53.0462 18.7049 51.052 14.1327 47.6408 10.0591C47.011 9.29819 45.2792 7.56641 44.5182 6.93668C40.4576 3.53872 35.8393 1.51831 30.4995 0.803296C29.9222 0.724578 29.0825 0.69178 27.5278 0.67866C26.3404 0.665541 25.258 0.6721 25.1334 0.68522ZM25.4614 3.51904C25.4614 4.28653 25.5139 5.95271 25.586 7.53361C25.6254 8.30767 25.6713 9.41627 25.691 9.99353C25.7631 12.0402 25.9796 17.4126 26.0124 17.8915L26.0452 18.3703L25.75 18.3375C25.586 18.3244 25.4351 18.2851 25.4089 18.2654C25.3892 18.2392 25.3433 17.7865 25.3171 17.2552C25.199 14.9199 24.8119 5.86087 24.7726 4.5358L24.7332 3.07953L24.9169 3.0533C25.0153 3.04018 25.1793 3.0205 25.2843 3.01394L25.4614 3.00738V3.51904ZM31.7393 3.3616C31.7459 3.36816 31.7655 5.34921 31.7852 7.76321C31.8115 10.1838 31.8443 12.355 31.8639 12.5912C31.8836 12.8339 31.8771 13.0438 31.8443 13.0569C31.818 13.0766 31.654 13.0766 31.49 13.0569L31.1883 13.0307L31.1423 11.1218C31.1161 10.0657 31.0833 8.89805 31.0702 8.51758C31.0177 7.3565 30.9718 3.41408 31.0111 3.31569C31.0374 3.24353 31.1095 3.23697 31.3851 3.28289C31.5753 3.32225 31.7327 3.35504 31.7393 3.3616ZM16.566 5.55913C16.6054 5.61816 16.9137 9.23259 17.2942 13.9622C17.4188 15.5693 17.5435 17.0387 17.5631 17.2224C17.5959 17.5569 17.5894 17.5701 17.3795 17.7013C17.2614 17.7734 17.1433 17.8324 17.1171 17.8324C17.0974 17.8324 17.058 17.6619 17.0383 17.452C16.9465 16.5992 16.5923 12.4797 16.343 9.50154C16.1987 7.75009 16.0675 6.1823 16.0478 6.01175C16.015 5.72312 16.0215 5.69688 16.1921 5.60504C16.402 5.49353 16.5201 5.47385 16.566 5.55913ZM34.6257 6.87764C34.8094 6.94324 34.8291 6.97603 34.8684 7.34994C34.934 8.00592 34.9144 11.1415 34.8422 11.1415C34.652 11.1415 34.2584 10.9185 34.2256 10.7938C34.2059 10.7151 34.1862 9.78361 34.1862 8.72749C34.1862 6.59557 34.16 6.7202 34.6257 6.87764ZM22.5094 7.18595C22.5094 7.36306 22.5553 8.34047 22.6078 9.37035C22.6603 10.4002 22.7193 11.7056 22.7455 12.2698C22.7915 13.4112 22.8046 13.3718 22.3651 13.398C22.2207 13.4024 22.1442 13.2953 22.1355 13.0766C22.1223 12.8929 22.0895 12.3222 22.0502 11.7975C22.0174 11.2727 21.9387 10.1378 21.8862 9.27195C21.8337 8.40606 21.7681 7.54673 21.7484 7.36306C21.7091 7.03507 21.7156 7.02195 21.8927 6.95636C21.9977 6.917 22.1814 6.8842 22.2995 6.8842C22.4394 6.87982 22.5094 6.98041 22.5094 7.18595ZM40.7068 8.08464L40.9299 8.17647L40.9758 9.05548C40.9955 9.53434 41.0086 10.5708 40.9955 11.3514L40.9758 12.7814L40.7003 12.6437L40.4248 12.5125L40.4051 10.3346C40.392 9.1342 40.3985 8.11743 40.4116 8.07152C40.4291 8.00592 40.5275 8.01029 40.7068 8.08464ZM28.7283 8.94396C28.7676 8.98332 28.8595 12.1648 28.866 13.7785L28.8726 14.7494L28.5643 14.7034C28.3871 14.6838 28.2428 14.6641 28.2363 14.6575C28.2166 14.6444 28.0198 9.78362 28.0198 9.31131V8.82589L28.3543 8.86525C28.5446 8.89149 28.7086 8.92428 28.7283 8.94396ZM43.836 9.40971C43.9147 9.50154 43.9278 10.9381 43.9475 18.8623C43.9672 27.9607 43.9672 28.1969 43.8491 28.1969C43.7769 28.1969 43.6785 28.1575 43.6195 28.1116C43.5211 28.0394 43.508 27.2457 43.4752 19.4724C43.4489 14.7625 43.4161 10.4855 43.3964 9.96729L43.3571 9.02268L43.5473 9.16044C43.6588 9.23915 43.7835 9.35067 43.836 9.40971ZM37.9516 10.7545C37.9844 10.7807 38.0172 11.1546 38.0238 11.581C38.0566 13.0307 38.0632 21.9192 38.0304 21.9454C38.0172 21.9585 37.8992 21.9257 37.768 21.8733L37.5318 21.7749V10.6167L37.7155 10.6561C37.8139 10.6823 37.9188 10.7217 37.9516 10.7545ZM19.846 11.1218C19.8657 11.2989 19.8985 11.6991 19.9182 12.0271C19.9379 12.3485 19.9838 13.0832 20.0231 13.6539C20.1019 14.8084 20.0887 14.8806 19.7148 14.8806C19.518 14.8806 19.4918 14.8609 19.4655 14.6641C19.3999 14.2771 19.1703 11.0496 19.2031 10.9972C19.2359 10.9513 19.5771 10.8332 19.7345 10.8201C19.7739 10.8135 19.8263 10.9513 19.846 11.1218ZM8.99576 12.7945C9.06792 13.4899 9.21224 14.9461 9.3172 16.0285C9.42872 17.1109 9.52056 18.0292 9.52056 18.0686C9.52056 18.1473 9.01544 18.3966 8.96296 18.3441C8.93016 18.3113 8.27416 12.5059 8.27416 12.2435C8.27416 12.0861 8.77928 11.4236 8.84488 11.4957C8.86456 11.5088 8.93016 12.0927 8.99576 12.7945ZM34.7176 13.4833L34.9078 13.5948L34.9144 15.0117C34.9209 15.7858 34.934 16.6517 34.934 16.9338C34.9472 17.5241 34.875 17.6225 34.5208 17.4979L34.3174 17.4257V16.8616C34.3174 16.5467 34.2977 15.6349 34.2715 14.8281L34.2321 13.3718H34.383C34.4617 13.3718 34.6126 13.4243 34.7176 13.4833ZM11.8756 16.0285C11.9937 17.288 12.1839 19.4133 12.3086 20.7515L12.5316 23.1787L12.2758 23.4345L12.0265 23.6903L11.9806 23.1721C11.9543 22.8835 11.8231 21.5453 11.6854 20.194C11.5476 18.8426 11.3508 16.8813 11.2524 15.8383L11.0687 13.9491L11.3246 13.7129C11.5542 13.4964 11.5804 13.4899 11.6263 13.608C11.6526 13.6736 11.7641 14.7625 11.8756 16.0285ZM6.96216 16.8222C7.10648 18.1145 7.48696 21.5518 7.81496 24.4578C8.14296 27.3638 8.45128 30.1648 8.51032 30.6896C8.5628 31.2144 8.65464 32.0081 8.70712 32.4607C8.79896 33.2282 8.79896 33.2807 8.694 33.3594C8.53656 33.4775 8.47096 33.4644 8.47096 33.3266C8.47096 33.2676 8.41192 32.769 8.33976 32.2311C8.22168 31.3324 8.02488 29.8106 7.58536 26.3929C7.49352 25.7042 7.3164 24.3332 7.19176 23.3426C7.06056 22.3521 6.87032 20.8762 6.76536 20.0628C6.6604 19.2494 6.48328 17.8587 6.37176 16.96C6.25368 16.0679 6.18152 15.2741 6.2012 15.1889C6.24712 15.0117 6.63416 14.3951 6.67352 14.4345C6.68664 14.4542 6.81784 15.5234 6.96216 16.8222ZM4.9548 19.6495C5.0532 20.4367 5.23688 21.8733 5.36152 22.8507C5.48616 23.8215 5.6436 25.0351 5.71576 25.5402L5.8404 26.4585L5.70264 26.5766C5.62392 26.6422 5.5452 26.6685 5.51896 26.6422C5.49272 26.616 5.44024 26.3536 5.40088 26.065C5.36152 25.7763 5.1188 24.0905 4.8564 22.3259L4.39064 19.1116L4.54152 18.6655C4.62024 18.4228 4.70552 18.226 4.7252 18.226C4.75144 18.226 4.84984 18.8689 4.9548 19.6495ZM40.9692 18.7902C41.0611 18.882 41.0742 19.2887 41.0742 22.2996V25.7042H40.8905C40.4904 25.7042 40.4969 25.8026 40.4707 22.0766L40.451 18.6852H40.6609C40.7724 18.6852 40.9168 18.7311 40.9692 18.7902ZM26.6094 19.9644C28.0919 20.1874 29.3843 20.6007 30.6635 21.2566C31.49 21.683 31.8836 21.9782 32.802 22.8572C34.1665 24.1626 35.0062 25.304 35.7934 26.9177C36.9414 29.2661 37.3875 31.3456 37.9516 36.9214C38.2075 39.4206 38.542 43.9534 38.6142 45.8098C38.6339 46.3477 38.6798 47.2333 38.7192 47.7778C38.7913 48.9323 38.8766 48.7749 37.8598 49.2668C36.4494 49.9491 35.0915 50.4214 33.3006 50.8609C31.1095 51.3988 29.6926 51.5693 27.5278 51.5759L25.9534 51.5824L25.9665 50.8281C25.9665 50.4148 26.0059 49.4505 26.0452 48.6961C26.242 45.0424 26.2027 40.4308 25.9468 37.8725C25.8025 36.4031 25.5204 34.6189 25.363 34.2253C25.3302 34.14 25.4811 34.0679 26.1305 33.8448C27.3179 33.4316 28.3478 32.9133 28.5052 32.6575C28.7873 32.1721 28.2822 31.4768 27.6393 31.4768C27.5278 31.4768 27.1932 31.5948 26.8849 31.7326C25.4155 32.4082 22.47 33.202 20.771 33.3791C19.5967 33.5037 17.7731 33.4316 16.507 33.202C15.8182 33.0773 14.5849 32.6116 13.555 32.0803C12.3676 31.4636 11.6394 30.6437 11.423 29.6728C11.3049 29.148 11.3377 28.0985 11.4886 27.5081C11.6526 26.8587 12.1118 25.9141 12.5316 25.3631C14.4012 22.9031 18.2585 20.7712 22.2142 20.0234C23.4737 19.7873 25.258 19.761 26.6094 19.9644ZM46.847 20.1677C47.0832 20.2661 47.1094 20.2924 47.1094 20.5154C47.1225 22.3062 47.0832 26.3995 47.0504 26.5701C47.0438 26.6291 46.7027 26.6357 46.5584 26.5832C46.4665 26.5504 46.4534 26.1961 46.4534 23.3033C46.4534 21.2304 46.4796 20.0628 46.519 20.0628C46.5518 20.0628 46.7027 20.1087 46.847 20.1677ZM49.7137 23.769L49.9499 23.8674L49.904 29.2989C49.8515 36.2195 49.8449 36.4228 49.5956 37.0198C49.1889 37.9972 49.2086 38.194 49.248 33.9039C49.2611 31.7588 49.2939 29.5875 49.307 29.0824C49.3201 28.5773 49.3332 27.1539 49.3398 25.9141C49.3398 24.4185 49.3595 23.6706 49.4054 23.6706C49.4448 23.6706 49.5825 23.7166 49.7137 23.769ZM10.2618 25.4024C10.3012 25.9338 10.2881 25.9862 10.0978 26.4061L9.88792 26.8521L9.8092 26.1961C9.68456 25.1466 9.68456 25.1007 9.93384 24.9432C10.0454 24.8645 10.1634 24.812 10.1831 24.8252C10.2028 24.8383 10.2422 25.1007 10.2618 25.4024ZM6.20776 29.358C6.2668 29.8959 6.726 33.4644 6.96216 35.2158C7.3164 37.925 7.34264 38.312 7.1852 38.148C7.16552 38.1284 7.01464 37.2166 6.8572 36.1211C5.83384 29.0496 5.8404 29.0956 5.92568 29.0431C6.1028 28.925 6.16184 28.9906 6.20776 29.358ZM10.931 32.3623C10.9703 32.5263 11.1606 34.304 11.1606 34.5205C11.1606 34.7042 10.9244 34.8747 10.8194 34.7698C10.7866 34.737 10.7014 34.1794 10.6358 33.5365C10.5636 32.8871 10.4914 32.2115 10.4718 32.0343L10.4324 31.7064L10.662 31.9687C10.7932 32.1131 10.9113 32.2902 10.931 32.3623ZM16.2249 34.8354C16.2971 34.901 16.343 35.1633 16.402 35.8718C16.5004 37.151 16.5135 37.0526 16.2446 37.0526C15.9756 37.0526 15.9756 37.0722 15.8838 35.9177C15.7919 34.7435 15.7919 34.7566 15.9691 34.7566C16.0543 34.7566 16.1659 34.796 16.2249 34.8354ZM21.4204 34.9338C21.4335 34.9994 21.4663 35.3929 21.4926 35.8062C21.5123 36.2195 21.5713 37.151 21.6238 37.8725C21.8075 40.5227 21.814 40.8572 21.7025 40.8572C21.5779 40.8572 21.5647 40.7588 21.4204 38.8893C21.3679 38.1152 21.2695 36.8951 21.2039 36.1801C21.1449 35.4651 21.1055 34.8682 21.1252 34.855C21.1974 34.7763 21.3876 34.8354 21.4204 34.9338ZM9.0876 36.1932C9.12696 36.2523 9.37624 38.3514 9.68456 41.218C9.7764 42.0839 9.86824 42.917 9.88792 43.0744L9.92072 43.3565L9.75672 43.2515C9.63208 43.1663 9.58616 43.081 9.58616 42.9301C9.58616 42.5168 9.30408 39.7945 9.0876 38.1284C8.96296 37.1838 8.86456 36.3507 8.86456 36.2719C8.86456 36.1342 9.022 36.0817 9.0876 36.1932ZM46.9454 38.9352L46.8995 41.6772L46.7355 41.9199C46.3616 42.4709 46.3812 42.5759 46.4009 39.5059L46.414 36.6918L46.6568 36.4425C46.788 36.3113 46.9192 36.1998 46.9454 36.1998C46.9651 36.1998 46.9651 37.433 46.9454 38.9352ZM40.8774 43.2843C40.9102 47.0956 40.9036 47.3908 40.7987 47.5088C40.7331 47.581 40.674 47.6269 40.6544 47.6072C40.6084 47.5547 40.5428 39.2435 40.5953 39.1976C40.6216 39.1714 40.6872 39.1582 40.7462 39.1648C40.8315 39.1845 40.8512 39.6502 40.8774 43.2843ZM19.4524 40.6735C19.4983 41.0803 19.6623 43.0285 19.7279 43.9469C19.7673 44.5635 19.7673 44.5832 19.623 44.6291C19.5443 44.6553 19.4524 44.6488 19.4262 44.616C19.3803 44.57 19.2359 43.1138 19.0588 40.8703L19.0129 40.3324H19.2163C19.4065 40.3324 19.4196 40.3456 19.4524 40.6735ZM14.2962 42.9695C14.3422 43.0154 14.375 43.1794 14.375 43.3434C14.375 43.5074 14.4537 44.3995 14.539 45.3179C14.7882 47.8303 14.8079 48.1714 14.6964 48.1058C14.5258 48.0074 14.375 47.8565 14.4078 47.8171C14.4209 47.7909 14.3946 47.4629 14.3422 47.089C14.2962 46.7085 14.2372 46.0919 14.211 45.7114C14.1847 45.331 14.1257 44.6356 14.0732 44.1699C13.9486 43.0219 13.9551 42.8908 14.0994 42.8908C14.165 42.8908 14.2503 42.9235 14.2962 42.9695ZM17.3991 47.3842C17.4188 47.5285 17.4582 48.0664 17.4844 48.5781C17.5303 49.562 17.5107 49.6342 17.2417 49.4308C17.163 49.3718 17.1105 49.1225 17.0318 48.3747C16.894 47.0234 16.8875 47.0759 17.1433 47.1021C17.3335 47.1218 17.3598 47.148 17.3991 47.3842Z" fill="white"/>
<path id="Vector_2" d="M15.0569 23.1064C14.3747 23.4016 14.3222 24.3265 14.9651 24.6545C15.4308 24.8906 15.9032 24.7791 16.1459 24.3724C16.6051 23.6246 15.8572 22.7587 15.0569 23.1064Z" fill="white"/>
<path id="Vector_3" d="M19.5046 23.7362C18.8748 24.1232 18.8748 25.0547 19.5046 25.4417C20.1278 25.8156 20.9347 25.3236 20.9347 24.5758C20.9347 23.828 20.1081 23.3688 19.5046 23.7362Z" fill="white"/>
</g>
<defs>
<clipPath id="clip0_226_226">
<rect width="53.3427" height="53.3427" fill="white" transform="translate(0.560608 0.671387)"/>
</clipPath>
</defs>
</svg>
