<svg width="97" height="50" viewBox="0 0 97 50" fill="none" xmlns="http://www.w3.org/2000/svg">
<g id="Layer_1" clip-path="url(#clip0_226_231)">
<path id="Vector" d="M48.8924 0.481812C22.3269 0.481812 0.792603 11.3558 0.792603 24.7718C0.792603 38.1878 22.3269 49.0618 48.8924 49.0618C75.4578 49.0618 96.9921 38.1878 96.9921 24.7718C96.9921 11.3558 75.4578 0.481812 48.8924 0.481812ZM36.3733 29.5027C35.2238 30.5697 33.9483 31.0169 32.5468 31.4719C31.1453 31.927 29.358 31.8328 27.1849 31.8328H22.2639L20.9017 39.6784H15.154L20.2797 13.0034H31.3343C34.6569 13.0034 37.0898 13.9606 38.6094 15.6944C40.1291 17.4283 40.5936 19.8997 39.9873 23.0222C39.7354 24.3089 39.3102 25.5014 38.7197 26.5606C38.1213 27.6276 37.3418 28.6161 36.3812 29.5027H36.3733ZM53.152 31.8328L55.4196 20.5195C55.6794 19.1936 55.5849 18.2129 55.1361 17.7264C54.6873 17.2479 53.7346 16.9183 52.2701 16.9183H47.7113L44.7745 31.825H39.074L44.1997 5.9345H49.9002L48.538 12.9955H53.6165C56.8132 12.9955 59.0178 13.631 60.2303 14.7451C61.4429 15.8592 61.805 17.3812 61.3248 19.8683L58.9391 31.825H53.1441L53.152 31.8328ZM84.851 23.0615C84.5991 24.3481 84.1739 25.5171 83.5834 26.5841C82.985 27.6511 82.2055 28.624 81.2449 29.5027C80.0954 30.5697 78.8199 31.0169 77.4184 31.4719C76.0169 31.927 74.2296 31.8328 72.0565 31.8328H67.1355L65.7733 39.6784H60.0256L65.1513 13.0034H76.2058C79.5285 13.0034 81.9614 13.9606 83.481 15.6944C85.0006 17.4362 85.4652 19.9467 84.8589 23.0615H84.851ZM74.0249 16.9262H70.0881L67.9386 27.91H71.4344C73.7493 27.91 75.4815 27.6825 76.6153 26.8117C77.7491 25.9408 78.5128 24.5913 78.9144 22.5593C79.2923 20.6058 79.1191 19.0837 78.3947 18.2756C77.6624 17.4754 76.2137 16.9262 74.0249 16.9262ZM29.1533 16.9262H25.2165L23.067 27.91H26.5629C28.8777 27.91 30.6099 27.6825 31.7437 26.8117C32.8775 25.9408 33.6412 24.5913 34.0428 22.5593C34.4207 20.6058 34.2475 19.0837 33.5231 18.2756C32.7987 17.4675 31.3421 16.9262 29.1533 16.9262Z" fill="white"/>
</g>
<defs>
<clipPath id="clip0_226_231">
<rect width="96.2074" height="48.58" fill="white" transform="translate(0.792603 0.481812)"/>
</clipPath>
</defs>
</svg>
