<?xml version="1.0" encoding="UTF-8"?><svg id="Layer_2" xmlns="http://www.w3.org/2000/svg" xmlns:xlink="http://www.w3.org/1999/xlink" viewBox="0 0 187.73 39.64"><defs><style>.cls-1{fill:none;}.cls-1,.cls-2,.cls-3,.cls-4,.cls-5,.cls-6,.cls-7,.cls-8,.cls-9,.cls-10{stroke-width:0px;}.cls-2{fill:url(#linear-gradient);}.cls-3{fill:url(#linear-gradient-4);}.cls-4{fill:url(#linear-gradient-2);}.cls-5{fill:url(#linear-gradient-3);}.cls-6{fill:url(#linear-gradient-5);}.cls-7{fill:url(#linear-gradient-6);}.cls-8{fill:#4156e1;}.cls-9{fill:#fff;}.cls-10{fill:#efefef;}</style><linearGradient id="linear-gradient" x1="27.36" y1="28.96" x2="31.44" y2="26.31" gradientUnits="userSpaceOnUse"><stop offset=".18" stop-color="#efefef" stop-opacity="0"/><stop offset=".7" stop-color="#efefef"/></linearGradient><linearGradient id="linear-gradient-2" x1="4037.8" y1="-726.04" x2="4041.89" y2="-728.69" gradientTransform="translate(4079.85 -715.24) rotate(-180)" xlink:href="#linear-gradient"/><linearGradient id="linear-gradient-3" x1="26.46" y1="13.15" x2="23.82" y2="-1.8" gradientUnits="userSpaceOnUse"><stop offset="0" stop-color="#efefef" stop-opacity="0"/><stop offset="1" stop-color="#efefef"/></linearGradient><linearGradient id="linear-gradient-4" x1="4141.38" y1="13.15" x2="4138.75" y2="-1.8" gradientTransform="translate(4184.49) rotate(-180) scale(1 -1)" xlink:href="#linear-gradient-3"/><linearGradient id="linear-gradient-5" x1="113.96" y1="-1833.75" x2="111.32" y2="-1848.7" gradientTransform="translate(-87.58 -1807.25) scale(1 -1)" xlink:href="#linear-gradient-3"/><linearGradient id="linear-gradient-6" x1="3454.04" y1="-1833.74" x2="3451.4" y2="-1848.69" gradientTransform="translate(3497.2 -1807.25) rotate(-180)" xlink:href="#linear-gradient-3"/></defs><g id="Layer_1-2"><path class="cls-9" d="m79.6,11.42h16.46c2.46,0,4.34.5,5.65,1.51,1.31,1.01,1.96,2.45,1.96,4.32s-.65,3.31-1.96,4.31c-1.31,1-3.19,1.5-5.65,1.5h-10.59v5.16h-5.88V11.42Zm15.35,7.88c.87,0,1.54-.18,2.01-.54.47-.36.7-.86.7-1.51s-.23-1.15-.7-1.51c-.47-.36-1.14-.54-2.01-.54h-9.47v4.09h9.47Z"/><path class="cls-9" d="m105.93,11.42h5.88v6.71h2.86l8.9-6.71h7.42l-11.18,8.49,11.42,8.3h-7.99l-8.3-6h-3.12v6h-5.88V11.42Z"/><path class="cls-9" d="m156.04,28.22h-14.37c-3.66,0-6.49-.73-8.48-2.19-1.99-1.46-2.99-3.53-2.99-6.21s.99-4.77,2.97-6.22c1.98-1.45,4.81-2.18,8.49-2.18h14.37v3.97h-13.78c-1.9,0-3.37.4-4.41,1.19-1.04.79-1.56,1.9-1.56,3.31s.52,2.51,1.56,3.31c1.04.79,2.51,1.19,4.41,1.19h8.35v-2.74h-8.35v-3.31h13.78v9.87Z"/><path class="cls-9" d="m187.73,28.22h-7.28l-7.3-6.4h-.81l-7.3,6.4h-7.28l9.42-8.45-9.18-8.35h7.3l7.04,6.23h.78l7.07-6.23h7.3l-9.18,8.33,9.42,8.47Z"/><polygon class="cls-1" points="15.45 19.82 21.23 28.31 27.04 19.84 21.27 11.34 15.45 19.82"/><polygon class="cls-1" points="54.09 19.8 48.31 28.3 42.5 19.83 48.27 11.33 54.09 19.8"/><polygon class="cls-9" points="21.23 28.31 13.48 39.61 28.94 39.64 28.94 39.64 34.75 31.17 27.04 19.84 21.23 28.31"/><polygon class="cls-9" points="55.99 0 40.54 .03 40.54 .03 34.79 8.49 34.76 8.54 42.51 19.83 48.29 11.33 55.99 0 55.99 0"/><polygon class="cls-10" points="21.23 28.31 15.45 19.82 21.27 11.34 13.57 .01 0 19.78 0 19.78 0 19.78 13.48 39.61 28.94 39.64 28.94 39.64 13.48 39.61 21.23 28.31"/><polygon class="cls-10" points="48.31 28.3 54.09 19.8 48.27 11.33 55.97 0 69.54 19.77 69.54 19.77 69.54 19.77 56.06 39.6 40.6 39.63 40.6 39.63 56.06 39.6 48.31 28.3"/><polygon class="cls-9" points="24.24 23.93 21.23 28.31 13.48 39.61 28.94 39.64 28.94 39.64 31.95 35.25 30.92 33.77 24.24 23.93"/><polygon class="cls-2" points="26.95 19.92 24.15 24.02 30.83 33.86 31.86 35.34 34.66 31.26 26.95 19.92"/><polygon class="cls-4" points="42.45 19.84 45.26 15.74 38.57 5.91 37.55 4.42 34.75 8.5 42.45 19.84"/><polygon class="cls-9" points="48.31 28.3 42.5 19.83 34.77 8.5 29.02 .04 29.02 .04 13.57 .01 13.57 .01 13.57 .01 21.27 11.34 27.04 19.84 34.75 31.17 40.6 39.63 40.6 39.63 56.06 39.6 48.31 28.3"/><polygon class="cls-8" points="34.77 31.21 34.8 31.17 34.77 31.14 34.77 31.21"/><polygon class="cls-5" points="34.77 8.5 29.02 .04 29.02 .04 13.57 .01 13.57 .01 13.57 .01 21.27 11.34 21.27 11.34 36.71 11.34 34.77 8.5"/><polygon class="cls-3" points="34.79 8.5 40.54 .04 40.54 .04 55.99 .01 55.99 .01 55.99 .01 48.29 11.34 48.29 11.34 32.85 11.34 34.79 8.5"/><polygon class="cls-6" points="34.69 31.15 28.94 39.61 28.94 39.61 13.48 39.64 13.48 39.64 13.48 39.64 21.19 28.31 21.19 28.31 36.63 28.31 34.69 31.15"/><polygon class="cls-7" points="34.85 31.14 40.6 39.6 40.6 39.6 56.06 39.63 56.06 39.63 56.06 39.63 48.36 28.3 48.35 28.3 32.91 28.3 34.85 31.14"/></g></svg>