<?xml version="1.0" encoding="utf-8"?>
<!-- Generator: Adobe Illustrator 27.8.1, SVG Export Plug-In . SVG Version: 6.00 Build 0)  -->
<svg version="1.1" id="Layer_1" xmlns="http://www.w3.org/2000/svg" xmlns:xlink="http://www.w3.org/1999/xlink" x="0px" y="0px"
	 viewBox="0 0 106 106" style="enable-background:new 0 0 106 106;" xml:space="preserve">
<style type="text/css">
	.st0{fill:#FFFFFF;}
</style>
<path class="st0" d="M104.8,51.7l-4.4-2.7c0-0.5-0.1-0.9-0.1-1.4l3.8-3.5c0.4-0.4,0.6-0.9,0.5-1.4c-0.1-0.5-0.5-0.9-1-1.1l-4.9-1.7
	c-0.1-0.5-0.3-0.9-0.4-1.4l3.1-4.2c0.3-0.4,0.4-1,0.2-1.5c-0.2-0.5-0.6-0.8-1.2-0.9l-5.1-0.8c-0.2-0.4-0.4-0.8-0.7-1.2l2.2-4.7
	c0.2-0.5,0.2-1-0.1-1.5s-0.8-0.7-1.3-0.7l-5.2,0.3c-0.3-0.4-0.6-0.7-0.9-1.1l1.3-5.1c0.1-0.5,0-1.1-0.4-1.4
	c-0.4-0.4-0.9-0.5-1.4-0.4l-5.1,1.3c-0.4-0.3-0.7-0.6-1.1-0.9l0.3-5.2c0-0.5-0.2-1-0.7-1.3c-0.4-0.3-1-0.3-1.5-0.1L76,11.5
	c-0.4-0.2-0.8-0.4-1.2-0.7L74,5.7c-0.1-0.5-0.4-1-0.9-1.2s-1-0.1-1.5,0.2l-4.2,3.1c-0.4-0.1-0.9-0.3-1.4-0.4l-1.7-4.9
	c-0.2-0.5-0.6-0.9-1.1-1c-0.5-0.1-1,0.1-1.4,0.5l-3.5,3.8c-0.5-0.1-0.9-0.1-1.4-0.1l-2.7-4.4C54,0.8,53.5,0.5,53,0.5s-1,0.3-1.3,0.7
	L49,5.7c-0.5,0-0.9,0.1-1.4,0.1L44.2,2c-0.4-0.4-0.9-0.6-1.4-0.5c-0.5,0.1-0.9,0.5-1.1,1l-1.7,4.9c-0.5,0.1-0.9,0.3-1.4,0.4
	l-4.2-3.1c-0.4-0.3-1-0.4-1.5-0.2c-0.5,0.2-0.8,0.6-0.9,1.2l-0.8,5.1c-0.4,0.2-0.8,0.4-1.2,0.7l-4.7-2.2c-0.5-0.2-1-0.2-1.5,0.1
	c-0.4,0.3-0.7,0.8-0.7,1.3l0.3,5.2c-0.4,0.3-0.7,0.6-1.1,0.9l-5.1-1.3c-0.5-0.1-1.1,0-1.4,0.4c-0.4,0.4-0.5,0.9-0.4,1.4l1.3,5.1
	c-0.3,0.4-0.6,0.7-0.9,1.1l-5.2-0.3c-0.5,0-1,0.2-1.3,0.7c-0.3,0.4-0.3,1-0.1,1.5l2.2,4.7c-0.2,0.4-0.4,0.8-0.7,1.2L5.7,32
	c-0.5,0.1-1,0.4-1.2,0.9c-0.2,0.5-0.1,1,0.2,1.5l3.1,4.2c-0.1,0.4-0.3,0.9-0.4,1.4l-4.9,1.7c-0.5,0.2-0.9,0.6-1,1.1
	c-0.1,0.5,0.1,1,0.5,1.4l3.8,3.5c-0.1,0.5-0.1,0.9-0.1,1.4l-4.4,2.7C0.8,52,0.5,52.5,0.5,53s0.3,1,0.7,1.3L5.7,57
	c0,0.5,0.1,0.9,0.1,1.4L2,61.8c-0.4,0.4-0.6,0.9-0.5,1.4c0.1,0.5,0.5,0.9,1,1.1l4.9,1.7c0.1,0.5,0.3,0.9,0.4,1.4l-3.1,4.2
	c-0.3,0.4-0.4,1-0.2,1.5c0.2,0.5,0.6,0.8,1.2,0.9l5.1,0.8c0.2,0.4,0.4,0.8,0.7,1.2l-2.2,4.7c-0.2,0.5-0.2,1,0.1,1.5
	c0.3,0.4,0.7,0.7,1.2,0.7c0,0,0,0,0.1,0l5.2-0.3c0.3,0.4,0.6,0.7,0.9,1.1l-1.3,5.1c-0.1,0.5,0,1.1,0.4,1.4c0.3,0.3,0.7,0.4,1.1,0.4
	c0.1,0,0.2,0,0.4,0l5.1-1.3c0.4,0.3,0.7,0.6,1.1,0.9l-0.3,5.2c0,0.5,0.2,1,0.7,1.3c0.2,0.2,0.5,0.3,0.8,0.3c0.2,0,0.4,0,0.6-0.1
	l4.7-2.2c0.4,0.2,0.8,0.4,1.2,0.7l0.8,5.1c0.1,0.5,0.4,1,0.9,1.2c0.2,0.1,0.4,0.1,0.6,0.1c0.3,0,0.6-0.1,0.9-0.3l4.2-3.1
	c0.4,0.1,0.9,0.3,1.4,0.4l1.7,4.9c0.2,0.5,0.6,0.9,1.1,1c0.1,0,0.2,0,0.3,0c0.4,0,0.8-0.2,1.1-0.5l3.5-3.8c0.5,0.1,0.9,0.1,1.4,0.1
	l2.7,4.4c0.3,0.5,0.8,0.7,1.3,0.7s1-0.3,1.3-0.7l2.7-4.4c0.5,0,0.9-0.1,1.4-0.1l3.5,3.8c0.3,0.3,0.7,0.5,1.1,0.5c0.1,0,0.2,0,0.3,0
	c0.5-0.1,0.9-0.5,1.1-1l1.7-4.9c0.5-0.1,0.9-0.3,1.4-0.4l4.2,3.1c0.3,0.2,0.6,0.3,0.9,0.3c0.2,0,0.4,0,0.6-0.1
	c0.5-0.2,0.8-0.6,0.9-1.2l0.8-5.1c0.4-0.2,0.8-0.4,1.2-0.7l4.7,2.2c0.2,0.1,0.4,0.1,0.6,0.1c0.3,0,0.6-0.1,0.8-0.3
	c0.4-0.3,0.7-0.8,0.7-1.3l-0.3-5.2c0.4-0.3,0.7-0.6,1.1-0.9l5.1,1.3c0.1,0,0.2,0,0.4,0c0.4,0,0.8-0.2,1.1-0.4
	c0.4-0.4,0.5-0.9,0.4-1.4l-1.3-5.1c0.3-0.4,0.6-0.7,0.9-1.1l5.2,0.3c0,0,0,0,0.1,0c0.5,0,1-0.2,1.2-0.7c0.3-0.4,0.3-1,0.1-1.5
	L94.5,76c0.2-0.4,0.4-0.8,0.7-1.2l5.1-0.8c0.5-0.1,1-0.4,1.2-0.9c0.2-0.5,0.1-1-0.2-1.5l-3.1-4.2c0.1-0.4,0.3-0.9,0.4-1.4l4.9-1.7
	c0.5-0.2,0.9-0.6,1-1.1c0.1-0.5-0.1-1-0.5-1.4l-3.8-3.5c0.1-0.5,0.1-0.9,0.1-1.4l4.4-2.7c0.5-0.3,0.7-0.8,0.7-1.3
	S105.2,52,104.8,51.7z M53,91.5c-5.9,0-11.5-1.3-16.5-3.7l-1.1-6.9c-0.3-1.6-1.8-2.8-3.4-2.5l-6.9,1.1c-1-1.1-2-2.2-2.9-3.4h31.4
	c0.3,0,0.5-0.2,0.5-0.5v-11c0-0.3-0.2-0.5-0.5-0.5H45v-7h9.5c5.4,0,6.4,4.8,7.4,9.8c0.9,4.5,1.9,9.2,6.6,9.2h15.4
	c-0.9,1.2-1.9,2.4-2.9,3.4L74,78.4c-1.6-0.3-3.2,0.9-3.4,2.5l-1.1,6.9C64.5,90.2,58.9,91.5,53,91.5z M45.9,15.2l5,5
	c0.6,0.6,1.4,0.9,2.1,0.9s1.5-0.3,2.1-0.9l5-5c11.5,2.2,21.3,9.4,26.7,19.4l-3.2,6.2c-0.8,1.5-0.2,3.3,1.3,4l6.2,3.2
	c0.2,1.6,0.3,3.3,0.3,5c0,1-0.1,2-0.1,3h-3.9c-0.3,0-0.5,0.2-0.5,0.5v2c0,3.1-1.5,5.1-3.9,5.4c-2.1,0.2-4.6-1.1-5.1-3.5
	c-0.8-4-3.6-7.7-5.4-8.9c5.8-3.4,8.3-8.4,6.9-13.8C78,31.6,72,27,65.5,27H24.6C30.2,21,37.6,16.7,45.9,15.2z M63,42.5
	c0,0.9-0.5,1.7-1.3,2.4c-1,0.8-2.5,1.1-4.2,1.1H45v-7h12.5C61.3,39,63,40.8,63,42.5z M21.1,44.9c0.7-0.4,1.2-1,1.5-1.7
	c0.2-0.8,0.2-1.6-0.2-2.3L21.5,39H28v25H16.1c-1-3.5-1.6-7.2-1.6-11c0-1.7,0.1-3.3,0.3-5L21.1,44.9z"/>
</svg>
