<svg width="240" height="69" viewBox="0 0 240 69" fill="none" xmlns="http://www.w3.org/2000/svg">
<g id="Group 6">
<g id="logo">
<path d="M126.009 59.3854C126.522 59.2987 127.043 59.2104 127.55 59.2104C128.09 59.2104 128.629 59.2104 129.437 60.0097C131.055 62.1405 125.393 65.6027 123.778 66.137C119.734 67.7356 115.422 67.7356 111.381 66.6692C104.912 65.0706 101.947 60.809 101.947 53.6152V16.8533C100.06 16.8533 98.7134 16.8533 98.7134 14.4575C98.7134 12.8609 99.2526 12.0595 101.408 10.728L118.119 0.873389C119.734 -0.19305 122.16 -0.725227 122.16 1.93983V12.0595H127.011C128.629 12.0595 129.168 13.126 129.168 14.4575C129.168 15.7889 128.629 16.8533 127.011 16.8533H122.16V54.6816C122.16 54.9481 122.13 55.2145 122.1 55.481C122.041 56.0138 121.981 56.5467 122.16 57.0796C122.779 59.9323 124.343 59.6675 126.009 59.3854Z" fill="#98FF99"/>
<path fill-rule="evenodd" clip-rule="evenodd" d="M169.863 13.1287C162.854 9.93151 155.577 9.93151 148.571 12.5945C137.521 16.8581 131.862 25.1163 131.052 36.5695C130.244 46.4263 133.478 54.9515 141.294 61.3439C148.302 66.9391 156.656 68.2706 165.28 66.6719C171.21 65.6055 176.33 62.4104 180.102 57.6145C180.102 57.6145 180.102 57.3495 180.373 57.3495C180.912 56.283 180.102 54.9515 178.755 54.6844H178.216C177.317 54.6844 176.417 54.9216 175.518 55.1587C175.07 55.2768 174.622 55.3949 174.175 55.4837C165.551 57.0823 157.734 54.1522 153.962 46.4263L153.841 46.2074C152.289 43.4 151.231 41.4853 149.918 35.7702H178.755C181.452 35.7702 181.989 35.2381 181.989 32.5751C181.989 23.7827 178.216 16.8581 169.863 13.1287ZM164.472 27.7792C164.472 29.645 163.393 30.7093 161.507 30.7093H149.918C149.918 25.9135 150.457 21.1197 153.152 16.8581C155.848 12.3294 160.16 12.5945 162.586 17.1232C164.472 20.5876 164.741 24.0498 164.472 27.7792Z" fill="#98FF99"/>
<path fill-rule="evenodd" clip-rule="evenodd" d="M237.24 60.8113C236.972 59.4798 236.701 57.8812 236.701 56.5497C236.567 52.0387 236.5 47.5277 236.433 43.0168C236.365 38.4703 236.298 33.9239 236.162 29.3774C235.893 20.8521 231.581 14.9919 223.494 12.594C215.141 10.1982 207.054 10.1982 198.7 13.1283C195.467 14.1926 192.502 16.0584 190.884 19.2535C189.268 22.1857 189.537 25.3808 191.423 27.7788C194.12 30.976 197.893 30.976 201.395 30.1767C204.091 29.6424 205.709 27.2466 205.977 24.0494L206.076 23.3635C206.312 21.728 206.548 20.0913 206.785 18.4563C207.327 15.7912 208.942 14.1926 211.637 14.1926C214.062 14.1926 215.409 15.5262 215.949 18.4563C216.084 20.0599 216.152 21.7313 216.22 23.4024V23.4028C216.287 25.0613 216.354 26.7195 216.488 28.3109C216.906 32.6466 208.908 34.5825 203.656 35.8539C202.13 36.2232 200.836 36.5365 200.048 36.8362C195.196 38.4348 190.884 40.8328 187.921 45.0943C182.799 52.286 184.686 62.1428 191.963 65.8722C200.316 70.1338 212.715 68.5372 217.835 58.4134C219.453 62.1428 221.878 64.8078 225.651 65.8722C227.331 66.3457 229.223 66.6094 230.948 66.8499C231.162 66.8797 231.373 66.9092 231.581 66.9386C233.736 67.2058 241.281 68.003 238.858 64.2736C238.521 63.1103 238.079 62.3617 237.729 61.7689L237.729 61.7683C237.518 61.4117 237.341 61.1115 237.24 60.8113ZM216.488 50.9545C216.488 53.8846 213.523 56.2826 210.56 56.0154C207.595 55.7504 205.709 53.8846 205.44 50.6874C205.167 48.2916 205.977 45.8937 207.327 44.0279C209.75 40.8328 212.715 38.6999 216.488 36.5691C216.488 38.1678 216.518 39.7662 216.548 41.3646C216.607 44.5612 216.667 47.7574 216.488 50.9545Z" fill="#98FF99"/>
<path d="M22.2566 11.979C26.3071 10.9714 31.356 11.2538 36.0008 15.0783C38.4404 17.0872 40.9176 17.2835 43.1063 16.7855C44.3156 16.5104 45.3601 16.0369 46.1537 15.5738C46.9382 15.1161 47.5056 14.6517 47.7462 14.3748C49.1262 12.7862 51.5498 12.6024 53.1595 13.9642C54.7692 15.3261 54.9555 17.7178 53.5755 19.3064C51.9753 21.1484 48.7166 23.285 44.8313 24.169C40.7337 25.1013 35.6816 24.684 31.0817 20.8963C28.6871 18.9246 26.3005 18.7872 24.1333 19.3263C21.7877 19.9098 19.8653 21.2795 19.1791 21.9343C17.6549 23.3887 15.2244 23.3484 13.7506 21.8442C12.2768 20.3399 12.3177 17.9415 13.842 16.487C15.3141 15.0823 18.3867 12.9417 22.2566 11.979Z" fill="#98FF99"/>
<path d="M11.0215 11.0071C11.8005 9.07724 10.8284 6.86923 8.85027 6.07535C6.87216 5.28146 4.63712 6.20232 3.85818 8.13215C-3.5439 26.4706 0.00235675 47.5048 11.9473 60.0204C13.4117 61.5547 15.8482 61.652 17.3894 60.2377C18.9305 58.8234 18.9928 56.433 17.5284 54.8987C7.94098 44.8532 4.54981 27.0406 11.0215 11.0071Z" fill="#98FF99"/>
<path d="M58.4828 6.07535C56.5047 6.86923 55.5326 9.07724 56.3115 11.0071C62.7833 27.0406 59.3921 44.8532 49.8047 54.8987C48.3403 56.433 48.4025 58.8234 49.9437 60.2377C51.4849 61.652 53.9214 61.5547 55.3858 60.0204C67.3307 47.5048 70.877 26.4706 63.4749 8.13215C62.696 6.20232 60.4609 5.28146 58.4828 6.07535Z" fill="#98FF99"/>
<path d="M26.4261 57.9128C24.3059 57.9128 22.5871 59.609 22.5871 61.7014C22.5871 63.7938 24.3059 65.49 26.4261 65.49H40.6554C42.7757 65.49 44.4945 63.7938 44.4945 61.7014C44.4945 59.609 42.7757 57.9128 40.6554 57.9128H26.4261Z" fill="#98FF99"/>
<path d="M73.7206 21.6226V21.4697C73.7206 19.3773 75.4394 17.6811 77.5597 17.6811C79.6799 17.6811 81.3987 19.3773 81.3987 21.4697V21.6226C81.3987 23.715 79.6799 25.4112 77.5597 25.4112C75.4394 25.4112 73.7206 23.715 73.7206 21.6226Z" fill="#98FF99"/>
<path d="M77.9658 34.1059C75.8572 33.8865 73.9676 35.3955 73.7453 37.4763C73.3903 40.7986 72.4472 44.0072 71.5626 46.4298C71.1247 47.6294 70.7112 48.6087 70.4115 49.2795C70.2651 49.6072 70.1149 49.9335 69.9549 50.255L69.9538 50.2572C69.0014 52.1255 69.7632 54.4021 71.656 55.3432C73.54 56.2799 75.8347 55.5405 76.7974 53.6924C76.7974 53.6924 77.2355 52.7875 77.4372 52.3362C77.7967 51.5314 78.2788 50.388 78.7861 48.9984C79.7922 46.2431 80.939 42.4086 81.3811 38.2709C81.6034 36.19 80.0743 34.3253 77.9658 34.1059Z" fill="#98FF99"/>
</g>
</g>
</svg>
