<?xml version="1.0" encoding="UTF-8"?><svg id="Layer_2" xmlns="http://www.w3.org/2000/svg" xmlns:xlink="http://www.w3.org/1999/xlink" viewBox="0 0 127.99 72.98"><defs><style>.cls-1{fill:none;}.cls-1,.cls-2,.cls-3,.cls-4,.cls-5,.cls-6,.cls-7,.cls-8,.cls-9{stroke-width:0px;}.cls-2{fill:url(#linear-gradient);}.cls-3{fill:url(#linear-gradient-4);}.cls-4{fill:url(#linear-gradient-2);}.cls-5{fill:url(#linear-gradient-3);}.cls-6{fill:url(#linear-gradient-5);}.cls-7{fill:url(#linear-gradient-6);}.cls-8{fill:#4156e1;}.cls-9{fill:#304cb2;}</style><linearGradient id="linear-gradient" x1="50.52" y1="53.16" x2="58.04" y2="48.28" gradientUnits="userSpaceOnUse"><stop offset=".18" stop-color="#304cb2" stop-opacity="0"/><stop offset=".7" stop-color="#304cb2"/></linearGradient><linearGradient id="linear-gradient-2" x1="69.83" y1="24.8" x2="77.45" y2="19.85" gradientUnits="userSpaceOnUse"><stop offset=".3" stop-color="#304cb2"/><stop offset=".82" stop-color="#304cb2" stop-opacity="0"/></linearGradient><linearGradient id="linear-gradient-3" x1="48.69" y1="24.22" x2="43.84" y2="-3.29" gradientUnits="userSpaceOnUse"><stop offset=".18" stop-color="#304cb2" stop-opacity="0"/><stop offset=".7" stop-color="#304cb2" stop-opacity=".5"/></linearGradient><linearGradient id="linear-gradient-4" x1="2408.35" y1="24.22" x2="2403.5" y2="-3.29" gradientTransform="translate(2487.75) rotate(-180) scale(1 -1)" xlink:href="#linear-gradient-3"/><linearGradient id="linear-gradient-5" x1="136.13" y1="-1454.24" x2="131.28" y2="-1481.75" gradientTransform="translate(-87.58 -1405.44) scale(1 -1)" xlink:href="#linear-gradient-3"/><linearGradient id="linear-gradient-6" x1="2482.25" y1="-1454.22" x2="2477.4" y2="-1481.73" gradientTransform="translate(2561.7 -1405.44) rotate(-180)" xlink:href="#linear-gradient-3"/></defs><g id="Layer_1-2"><polygon class="cls-1" points="28.44 36.49 39.08 52.13 49.78 36.53 39.14 20.89 28.44 36.49"/><polygon class="cls-1" points="99.55 36.47 88.91 52.11 78.22 36.51 88.85 20.87 99.55 36.47"/><polygon class="cls-8" points="39.08 52.13 24.82 72.92 53.26 72.98 53.26 72.98 63.95 57.39 49.78 36.53 39.08 52.13"/><polygon class="cls-8" points="103.02 .02 74.58 .08 74.58 .08 64 15.65 63.94 15.73 78.22 36.51 88.85 20.87 103.02 .02 103.02 .02"/><polygon class="cls-8" points="74.58 .08 103.02 .02 74.58 .08 74.58 .08 74.58 .08"/><polygon class="cls-9" points="39.08 52.13 28.44 36.49 39.14 20.89 24.97 .04 0 36.43 0 36.43 0 36.43 24.82 72.92 53.26 72.98 53.26 72.98 24.82 72.92 39.08 52.13"/><polygon class="cls-9" points="88.91 52.11 99.55 36.47 88.85 20.87 103.02 .02 127.99 36.41 127.99 36.41 127.99 36.41 103.17 72.9 74.73 72.96 74.73 72.96 103.17 72.9 88.91 52.11"/><polygon class="cls-8" points="44.61 44.06 39.08 52.13 24.82 72.92 53.26 72.98 53.26 72.98 58.81 64.9 56.92 62.17 44.61 44.06"/><polygon class="cls-8" points="83.26 28.93 88.81 20.89 103.12 .13 103.12 .13 74.68 0 74.68 0 69.18 7.98 71.06 10.79 83.26 28.93"/><polygon class="cls-2" points="49.78 36.53 44.61 44.06 56.92 62.17 58.81 64.9 63.95 57.39 49.78 36.53"/><polygon class="cls-4" points="63.94 15.73 78.22 36.51 83.36 28.95 71.03 10.89 69.13 8.09 64 15.65 63.94 15.73"/><polygon class="cls-8" points="88.91 52.11 78.22 36.51 64 15.67 53.41 .1 53.41 .1 24.97 .04 24.97 .04 24.97 .04 39.14 20.89 49.78 36.53 63.95 57.39 74.73 72.96 74.73 72.96 103.17 72.9 88.91 52.11"/><polygon class="cls-8" points="103.02 .02 103.02 .02 103.02 .02 103.02 .02"/><polygon class="cls-8" points="103.02 .02 103.02 .02 103.02 .02 103.02 .02"/><polygon class="cls-8" points="64 57.45 64.04 57.39 64 57.33 64 57.45"/><polygon class="cls-5" points="64 15.67 53.41 .1 53.41 .1 24.97 .04 24.97 .04 24.97 .04 39.14 20.89 39.15 20.9 67.57 20.9 64 15.67"/><polygon class="cls-3" points="64.09 15.67 74.68 .1 74.68 .1 103.12 .04 103.12 .04 103.12 .04 88.94 20.89 88.94 20.9 60.52 20.9 64.09 15.67"/><polygon class="cls-6" points="63.85 57.35 53.26 72.92 53.26 72.92 24.82 72.98 24.82 72.98 24.82 72.98 38.99 52.13 39 52.12 67.42 52.12 63.85 57.35"/><polygon class="cls-7" points="64.14 57.33 74.73 72.9 74.73 72.9 103.17 72.96 103.17 72.96 103.17 72.96 89 52.11 89 52.1 60.58 52.1 64.14 57.33"/></g></svg>