<svg width="502" height="290" viewBox="0 0 502 290" fill="none" xmlns="http://www.w3.org/2000/svg">
<g clip-path="url(#clip0_185_45036)">
<path d="M20.5893 164.891L92.816 216.021C101.532 222.429 113.986 219.877 120.211 210.918C126.435 201.958 123.948 189.169 115.228 182.788L43.0008 130.385L41.755 129.107V126.555L43.0008 125.277L115.228 72.8737C123.944 66.4659 126.435 53.7034 120.211 44.744C116.473 39.6407 110.249 35.7846 104.024 35.7846C100.287 35.7846 96.5535 37.0626 92.816 39.6407L20.5893 90.766C8.13554 98.4252 0.665039 111.21 0.665039 126.555C0.665039 144.447 8.13554 157.236 20.5893 164.896V164.891ZM458.143 2.62679C445.69 6.88981 440.179 18.2416 442.91 30.9997C442.91 32.4104 478.866 160.164 405.58 246.782C397.284 256.718 398.663 270.918 408.364 279.444C412.496 283.707 418.033 285.118 423.597 285.118C429.161 285.118 436.051 282.266 440.183 276.592C530.082 170.127 488.593 23.9109 487.21 18.2372C483.078 5.44816 470.624 -1.63623 458.17 2.62237H458.143V2.62679ZM194.025 31.0041C198.157 18.2151 191.24 6.86769 178.791 2.63121C166.337 -1.60527 155.289 5.48354 151.13 18.2416C149.751 23.9153 108.262 170.131 198.157 276.596C202.289 282.27 209.205 285.122 214.743 285.122C220.28 285.122 225.791 283.685 229.976 279.449C239.646 270.923 239.646 256.749 232.756 246.786C158.095 160.195 194.02 32.4458 194.02 31.0041H194.025ZM359.972 243.938H275.611C263.157 243.938 253.487 253.875 253.487 266.637C253.487 279.4 263.157 289.337 275.611 289.337H361.351C373.804 289.337 383.474 279.4 383.474 266.637C382.095 253.848 372.426 243.938 359.972 243.938Z" stroke="url(#paint0_linear_185_45036)" stroke-width="3" stroke-miterlimit="10"/>
<path d="M24.6328 163.507L96.8595 214.637C105.576 221.045 118.03 218.493 124.254 209.534C130.479 200.574 127.992 187.785 119.271 181.404L47.0443 129.001L45.7985 127.723V125.171L47.0443 123.893L119.271 71.4896C127.987 65.0819 130.479 52.3193 124.254 43.3599C120.517 38.2567 114.292 34.4005 108.067 34.4005C104.33 34.4005 100.597 35.6785 96.8595 38.2567L24.6328 89.3819C12.179 97.0412 4.7085 109.826 4.7085 125.171C4.7085 143.063 12.179 155.852 24.6328 163.512V163.507ZM462.187 1.24276C449.733 5.50577 444.222 16.8576 446.953 29.6157C446.953 31.0264 482.909 158.78 409.623 245.398C401.328 255.334 402.707 269.534 412.407 278.06C416.539 282.323 422.077 283.734 427.641 283.734C433.205 283.734 440.095 280.882 444.227 275.208C534.125 168.743 492.636 22.5269 491.253 16.8532C487.121 4.06413 474.667 -3.02026 462.214 1.23833H462.187V1.24276ZM198.068 29.6157C202.2 16.8266 195.284 5.47924 182.835 1.24276C170.381 -2.99372 159.332 4.09509 155.174 16.8532C153.795 22.5269 112.306 168.743 202.2 275.208C206.332 280.882 213.249 283.734 218.786 283.734C224.324 283.734 229.834 282.297 234.02 278.06C243.689 269.534 243.689 255.361 236.799 245.398C162.139 158.806 198.064 31.0573 198.064 29.6157H198.068ZM364.015 242.554H279.654C267.2 242.554 257.531 252.491 257.531 265.253C257.531 278.016 267.2 287.953 279.654 287.953H365.394C377.848 287.953 387.517 278.016 387.517 265.253C386.139 252.464 376.469 242.554 364.015 242.554Z" fill="url(#paint1_linear_185_45036)"/>
</g>
<defs>
<linearGradient id="paint0_linear_185_45036" x1="9.19263e-06" y1="145.363" x2="498.622" y2="145.363" gradientUnits="userSpaceOnUse">
<stop stop-color="#74FAD1"/>
<stop offset="0.08" stop-color="#E3FEF6" stop-opacity="0"/>
<stop offset="0.18" stop-color="#74FAD1" stop-opacity="0.75"/>
<stop offset="0.26" stop-color="#74FAD1"/>
<stop offset="0.38" stop-color="#74FAD1"/>
<stop offset="0.49" stop-color="#E3FEF6"/>
<stop offset="0.58" stop-color="#74FAD1" stop-opacity="0"/>
<stop offset="0.68" stop-color="#74FAD1"/>
<stop offset="0.78" stop-color="#74FAD1" stop-opacity="0"/>
<stop offset="0.84" stop-color="#74FAD1"/>
<stop offset="0.9" stop-color="#74FAD1" stop-opacity="0"/>
<stop offset="1" stop-color="#74FAD1"/>
</linearGradient>
<linearGradient id="paint1_linear_185_45036" x1="253.354" y1="287.953" x2="253.354" y2="0.000121889" gradientUnits="userSpaceOnUse">
<stop offset="0.26" stop-color="#74FAD1" stop-opacity="0"/>
<stop offset="1" stop-color="#74FAD1" stop-opacity="0.5"/>
</linearGradient>
<clipPath id="clip0_185_45036">
<rect width="502" height="290" fill="white"/>
</clipPath>
</defs>
</svg>
