<?xml version="1.0" encoding="UTF-8"?><svg id="Layer_2" xmlns="http://www.w3.org/2000/svg" viewBox="0 0 113.76 16.94"><defs><style>.cls-1{fill:#fff;stroke-width:0px;}</style></defs><g id="Layer_1-2"><path class="cls-1" d="m0,0h8.78l6.36,9.89h.38L21.86,0h8.57v16.94h-5.59V4.61h-.6l-6.36,9.86h-5.18L6.19,4.61h-.6v12.34H0V0Z"/><path class="cls-1" d="m42.24,0h9.05l9.96,16.94h-6.29l-1.68-2.93h-13.27l-1.68,2.93h-6.05L42.24,0Zm9.05,10.34l-3.72-6.38h-1.85l-3.72,6.38h9.29Z"/><path class="cls-1" d="m62.64,12.82h15.07c.75,0,1.33-.13,1.73-.38.4-.26.6-.62.6-1.08s-.2-.82-.61-1.08c-.41-.26-.98-.38-1.72-.38h-7.46c-2.46,0-4.35-.42-5.65-1.26-1.3-.84-1.96-2.06-1.96-3.66s.65-2.83,1.96-3.68c1.3-.86,3.19-1.28,5.65-1.28h15.65v4.13h-14.81c-1.54,0-2.3.46-2.3,1.39,0,.42.2.74.6.98.4.24.97.36,1.7.36h7.46c2.48,0,4.37.43,5.68,1.3,1.3.86,1.96,2.11,1.96,3.74s-.65,2.88-1.96,3.74c-1.3.86-3.2,1.3-5.68,1.3h-15.91v-4.13Z"/><path class="cls-1" d="m88.73,0h5.93v6.34h13.15V0h5.95v16.94h-5.95v-6.48h-13.15v6.48h-5.93V0Z"/></g></svg>