<?xml version="1.0" encoding="UTF-8"?><svg id="Layer_2" xmlns="http://www.w3.org/2000/svg" xmlns:xlink="http://www.w3.org/1999/xlink" viewBox="0 0 228.5 130.15"><defs><style>.cls-1{fill:url(#linear-gradient);}.cls-1,.cls-2,.cls-3,.cls-4,.cls-5,.cls-6{stroke-width:0px;}.cls-2{fill:url(#linear-gradient-4);}.cls-3{fill:url(#linear-gradient-2);}.cls-4{fill:url(#linear-gradient-3);}.cls-5{fill:#fff;}.cls-6{fill:#efefef;}</style><linearGradient id="linear-gradient" x1="525.48" y1="2648.8" x2="538.9" y2="2640.09" gradientTransform="translate(663.65 2684.29) rotate(-180)" gradientUnits="userSpaceOnUse"><stop offset=".18" stop-color="#efefef" stop-opacity="0"/><stop offset=".7" stop-color="#efefef"/></linearGradient><linearGradient id="linear-gradient-2" x1="86.93" y1="43.22" x2="78.27" y2="-5.9" gradientUnits="userSpaceOnUse"><stop offset="0" stop-color="#efefef" stop-opacity="0"/><stop offset="1" stop-color="#efefef"/></linearGradient><linearGradient id="linear-gradient-3" x1="626.66" y1="43.22" x2="618" y2="-5.9" gradientTransform="translate(768.28) rotate(-180) scale(1 -1)" xlink:href="#linear-gradient-2"/><linearGradient id="linear-gradient-4" x1="-16.32" y1="1570.29" x2="-24.98" y2="1521.17" gradientTransform="translate(81 1592.28) rotate(-180)" xlink:href="#linear-gradient-2"/></defs><g id="Layer_1-2"><polygon class="cls-5" points="183.97 0 133.2 .11 133.2 .11 114.3 27.91 114.2 28.05 139.69 65.15 158.67 37.23 183.97 0 183.97 0"/><polygon class="cls-6" points="69.76 93.03 50.78 65.11 69.88 37.26 44.58 .04 0 65 0 65 0 65 44.31 130.15 69.76 93.03"/><polygon class="cls-6" points="158.73 92.99 177.72 65.07 158.61 37.23 183.92 0 228.49 64.97 228.5 64.97 228.49 64.97 184.19 130.12 158.73 92.99"/><polygon class="cls-1" points="139.49 65.18 148.72 51.73 126.74 19.4 123.38 14.54 114.18 27.94 139.49 65.18"/><polygon class="cls-3" points="114.25 27.94 95.35 .14 95.35 .14 44.58 .04 44.58 .04 44.58 .04 69.88 37.26 69.89 37.28 120.62 37.28 114.25 27.94"/><polygon class="cls-4" points="114.3 27.94 133.2 .14 133.2 .14 183.97 .04 183.97 .04 183.97 .04 158.67 37.26 158.66 37.28 107.93 37.28 114.3 27.94"/><polygon class="cls-5" points="114.25 27.94 95.35 .14 95.35 .14 44.58 .04 44.58 .04 44.58 .04 69.88 37.26 88.82 65.13 139.62 65.13 114.25 27.94"/><polygon class="cls-2" points="69.99 37.27 88.89 65.07 88.89 65.07 139.66 65.17 139.66 65.17 139.66 65.17 114.36 27.94 114.35 27.93 63.62 27.93 69.99 37.27"/></g></svg>