<svg width="163" height="19" viewBox="0 0 163 19" fill="none" xmlns="http://www.w3.org/2000/svg">
<path d="M26.1874 15.984C24.1874 17.488 21.3234 18.24 17.5954 18.24H12.1954C8.46741 18.24 5.60341 17.488 3.60341 15.984C1.61941 14.48 0.627406 12.328 0.627406 9.528C0.627406 6.712 1.61941 4.56 3.60341 3.072C5.60341 1.568 8.46741 0.816 12.1954 0.816H17.5954C21.3234 0.816 24.1874 1.568 26.1874 3.072C28.1874 4.56 29.1874 6.712 29.1874 9.528C29.1874 12.328 28.1874 14.48 26.1874 15.984ZM6.79541 9.528C6.79541 11.016 7.29941 12.152 8.30741 12.936C9.33141 13.72 10.8114 14.112 12.7474 14.112H17.0674C19.0194 14.112 20.4994 13.72 21.5074 12.936C22.5314 12.152 23.0434 11.016 23.0434 9.528C23.0434 8.04 22.5314 6.904 21.5074 6.12C20.4834 5.336 19.0034 4.944 17.0674 4.944H12.7474C10.8114 4.944 9.33141 5.336 8.30741 6.12C7.29941 6.904 6.79541 8.04 6.79541 9.528ZM31.1453 13.872H46.2173C46.9693 13.872 47.5453 13.744 47.9453 13.488C48.3453 13.232 48.5453 12.872 48.5453 12.408C48.5453 11.944 48.3373 11.584 47.9213 11.328C47.5213 11.072 46.9533 10.944 46.2173 10.944H38.7533C36.2893 10.944 34.4013 10.528 33.0893 9.696C31.7933 8.848 31.1453 7.624 31.1453 6.024C31.1453 4.424 31.7933 3.2 33.0893 2.352C34.4013 1.488 36.2893 1.056 38.7533 1.056H54.4013V5.184H39.5933C38.0573 5.184 37.2893 5.648 37.2893 6.576C37.2893 6.992 37.4893 7.32 37.8893 7.56C38.2893 7.8 38.8573 7.92 39.5933 7.92H47.0573C49.5373 7.92 51.4253 8.352 52.7213 9.216C54.0333 10.08 54.6893 11.328 54.6893 12.96C54.6893 14.592 54.0333 15.84 52.7213 16.704C51.4253 17.568 49.5373 18 47.0573 18H31.1453V13.872ZM56.7625 13.872H71.8345C72.5865 13.872 73.1625 13.744 73.5625 13.488C73.9625 13.232 74.1625 12.872 74.1625 12.408C74.1625 11.944 73.9545 11.584 73.5385 11.328C73.1385 11.072 72.5705 10.944 71.8345 10.944H64.3705C61.9065 10.944 60.0185 10.528 58.7065 9.696C57.4105 8.848 56.7625 7.624 56.7625 6.024C56.7625 4.424 57.4105 3.2 58.7065 2.352C60.0185 1.488 61.9065 1.056 64.3705 1.056H80.0185V5.184H65.2105C63.6745 5.184 62.9065 5.648 62.9065 6.576C62.9065 6.992 63.1065 7.32 63.5065 7.56C63.9065 7.8 64.4745 7.92 65.2105 7.92H72.6745C75.1545 7.92 77.0425 8.352 78.3385 9.216C79.6505 10.08 80.3065 11.328 80.3065 12.96C80.3065 14.592 79.6505 15.84 78.3385 16.704C77.0425 17.568 75.1545 18 72.6745 18H56.7625V13.872ZM90.777 1.056H99.825L109.785 18H103.497L101.817 15.072H88.545L86.865 18H80.817L90.777 1.056ZM99.825 11.4L96.105 5.016H94.257L90.537 11.4H99.825ZM111.664 1.056H128.272C130.752 1.056 132.648 1.568 133.96 2.592C135.288 3.6 135.952 5.048 135.952 6.936C135.952 8.824 135.288 10.272 133.96 11.28C132.648 12.288 130.752 12.792 128.272 12.792H117.592V18H111.664V1.056ZM127.144 9C128.024 9 128.696 8.824 129.16 8.472C129.64 8.104 129.88 7.592 129.88 6.936C129.88 6.28 129.64 5.776 129.16 5.424C128.696 5.056 128.024 4.872 127.144 4.872H117.592V9H127.144ZM138.242 1.056H154.85C157.33 1.056 159.226 1.568 160.538 2.592C161.866 3.6 162.53 5.048 162.53 6.936C162.53 8.824 161.866 10.272 160.538 11.28C159.226 12.288 157.33 12.792 154.85 12.792H144.17V18H138.242V1.056ZM153.722 9C154.602 9 155.274 8.824 155.738 8.472C156.218 8.104 156.458 7.592 156.458 6.936C156.458 6.28 156.218 5.776 155.738 5.424C155.274 5.056 154.602 4.872 153.722 4.872H144.17V9H153.722Z" fill="white"/>
</svg>
