<svg width="59" height="33" viewBox="0 0 59 33" fill="none" xmlns="http://www.w3.org/2000/svg">
<g id="Layer_1" clip-path="url(#clip0_323_17879)">
<path id="Vector" d="M35.755 0L22.9375 0.0272352L18.1659 7.07208L18.1433 7.10839L18.1478 7.11293L11.7481 16.5182L6.92686 23.5675H6.89067L6.88615 23.5721L2.53525 29.9996L0.5 32.9728H0.518091L0.5 33L6.90424 32.9864L13.3175 33L18.1343 25.9506L18.1071 25.9052L24.5747 16.5091L29.3688 9.43246L35.755 0Z" fill="#EFEFEF"/>
<path id="Vector_2" d="M58.5001 32.9909L52.114 23.563L52.1094 23.5585H52.1049L47.3198 16.4955L40.8523 7.09931L36.0626 0L23.2451 0.0272352L29.672 9.43246L32.164 13.082L34.4932 16.4864L40.8884 25.8916V25.8962L40.9111 25.9325L45.6826 32.9728L58.5001 33L58.4911 32.9909H58.5001Z" fill="white"/>
<path id="Vector_3" d="M40.843 7.06754L36.0714 0.0272352L23.2539 0L29.6401 9.43246H29.6446H42.4485L40.843 7.06754Z" fill="url(#paint0_linear_323_17879)"/>
</g>
<defs>
<linearGradient id="paint0_linear_323_17879" x1="33.9412" y1="10.9395" x2="31.7413" y2="-1.50429" gradientUnits="userSpaceOnUse">
<stop stop-color="#EFEFEF" stop-opacity="0"/>
<stop offset="1" stop-color="#EFEFEF"/>
</linearGradient>
<clipPath id="clip0_323_17879">
<rect width="58" height="33" fill="white" transform="translate(0.5)"/>
</clipPath>
</defs>
</svg>
