<svg width="893" height="1667" viewBox="0 0 893 1667" fill="none" xmlns="http://www.w3.org/2000/svg">
<g clip-path="url(#clip0_134_29255)">
<mask id="mask0_134_29255" style="mask-type:alpha" maskUnits="userSpaceOnUse" x="96" y="115" width="797" height="1552">
<rect x="96" y="115" width="797" height="1552" fill="#D9D9D9"/>
</mask>
<g mask="url(#mask0_134_29255)">
</g>
<g clip-path="url(#clip1_134_29255)">
<path d="M825.215 515.001L859.65 449.202L837.16 406.961L805.668 403.492L805.65 403.495L820.447 375.502L798.126 333.166L724.353 324.71L689.646 390.362L711.966 432.698L743.568 436.316L728.911 464.609L751.4 506.85L825.206 515.002L825.215 515.001ZM817.476 444.555L802.716 472.752L771.084 469.256L785.846 441.068L817.476 444.555ZM731.795 395.176L746.672 367.036L778.293 370.661L763.415 398.792L731.795 395.176Z" stroke="#1B2F4E" stroke-miterlimit="10"/>
<path d="M978.277 348.189L949.512 316.056L921.956 319.681L913.655 336.103L901.453 322.356L873.883 325.875L854.259 364.278L882.894 396.528L910.464 393.01L918.87 376.557L931.27 390.296L958.826 386.67L978.295 348.186L978.277 348.189ZM938.39 338.049L950.722 351.823L942.377 368.323L930.053 354.547L938.39 338.049ZM894.088 374.599L881.812 360.771L890.226 344.308L902.492 358.137L894.088 374.599Z" stroke="#1B2F4E" stroke-miterlimit="10"/>
<path d="M928.409 294.886L932.26 224.992L932.287 224.988L932.267 224.973L932.302 224.959L932.262 224.937L896.489 197.474L868.092 206.805L867.943 206.851L867.946 206.869L829.941 219.253L816.148 223.721L808.693 226.132L801.396 228.495L801.386 228.487L803.163 198.529L831.727 189.285L834.108 149.336L767.459 170.893L763.313 240.835L763.355 240.875L763.25 240.906L780.862 254.415L799.008 268.463L799.017 268.462L811.929 264.281L827.562 259.22L827.575 259.037L865.763 246.811L894.231 237.461L894.241 237.469L892.587 267.402L864.057 276.76L861.841 316.723L928.409 294.886Z" stroke="#1B2F4E" stroke-miterlimit="10"/>
<path d="M827.559 259.339L827.673 259.306L827.685 259.186L827.559 259.339Z" stroke="#1B2F4E" stroke-miterlimit="10"/>
<path d="M917.552 481.43L918.903 458.832L918.902 458.823L918.892 458.815L919.898 441.903L920.936 421.872L921.089 419.199L921.622 410.271L922.112 402.276L921.627 401.903L912.598 394.969L901.906 386.696L901.905 386.76L901.371 386.357L885.311 391.627L885.234 391.664L863.74 398.674L847.592 403.901L847.532 403.855L832.876 408.671L826.057 410.872L826.087 410.895L826.027 410.921L836.145 418.686L846.251 426.498L862.389 421.273L862.403 421.171L883.992 414.257L900.121 408.96L900.583 408.809L900.555 409.294L900.606 409.333L900.116 418.101L899.668 426.281L898.369 448.855L898.36 448.856L898.353 448.947L897.35 465.813L917.545 481.44L917.542 481.422L917.552 481.43Z" stroke="#1B2F4E" stroke-miterlimit="10"/>
<path d="M857.928 295.925L842.907 278.992L842.896 278.984L842.887 278.985L831.634 266.315L818.212 251.419L816.435 249.414L810.488 242.717L805.188 236.726L804.58 236.804L793.291 238.295L779.884 239.996L779.928 240.054L779.267 240.139L771.637 255.22L771.602 255.306L771.611 255.305L761.368 275.457L753.643 290.577L753.572 290.587L753.563 290.588L746.608 304.354L743.347 310.737L743.382 310.732L743.354 310.791L756.001 309.124L768.674 307.509L776.39 292.391L776.326 292.317L786.704 272.156L794.371 257.007L794.587 256.57L794.906 256.929L794.916 256.937L794.97 256.93L800.822 263.467L806.293 269.581L821.335 286.457L821.326 286.458L821.38 286.524L832.603 299.17L857.931 295.943L857.911 295.927L857.928 295.925Z" stroke="#1B2F4E" stroke-miterlimit="10"/>
<path d="M742.949 317.485L757.971 334.418L757.98 334.417L757.989 334.415L769.243 347.094L782.666 361.99L784.452 363.994L790.389 370.693L795.69 376.684L796.297 376.605L807.587 375.115L820.992 373.405L820.95 373.356L821.611 373.27L829.24 358.181L829.275 358.104L829.274 358.095L839.509 337.952L847.234 322.832L847.306 322.823L847.315 322.822L854.27 309.055L857.531 302.672L857.495 302.677L857.524 302.619L844.876 304.285L832.203 305.9L824.486 321.01L824.551 321.092L814.173 341.254L806.507 356.402L806.291 356.839L805.972 356.481L805.97 356.472L805.908 356.48L800.055 349.943L794.584 343.828L779.551 326.951L779.496 326.877L768.274 314.239L742.947 317.467L742.967 317.482L742.949 317.485Z" stroke="#1B2F4E" stroke-miterlimit="10"/>
<path d="M906.987 464.746L904.592 504.942L904.593 504.951L904.605 504.967L902.817 535.054L900.965 570.682L900.692 575.442L899.745 591.338L898.869 605.543L899.736 606.203L899.737 606.212L915.807 618.539L934.82 633.256L934.823 633.137L935.769 633.851L964.333 624.47L964.482 624.424L964.479 624.406L1002.7 611.948L1031.42 602.648L1031.53 602.734L1031.54 602.732L1057.61 594.166L1069.73 590.242L1069.68 590.203L1069.79 590.171L1051.79 576.35L1033.82 562.451L1005.1 571.751L1005.09 571.935L966.676 584.227L937.982 593.651L937.163 593.921L937.215 593.06L937.214 593.051L937.133 592.989L937.992 577.396L938.803 562.835L941.105 522.688L941.123 522.686L941.13 522.53L942.918 492.516L907.001 464.717L906.998 464.763L906.987 464.746Z" stroke="#1B2F4E" stroke-miterlimit="10"/>
<path d="M928.228 295.455L971.669 317.664L1029.58 347.265L1020.3 274.492L918.953 222.692L833.848 298.264L843.124 371.036L891.754 327.847L928.228 295.455Z" stroke="#1B2F4E" stroke-miterlimit="10"/>
<path d="M692.47 416.926L726.143 434.14L771.034 457.097L763.842 400.681L685.279 360.519L619.294 419.104L626.487 475.52L664.192 442.041L692.47 416.926Z" stroke="#1B2F4E" stroke-miterlimit="10"/>
<path d="M935.356 903.154L969.791 837.355L947.301 795.115L915.809 791.646L915.792 791.648L930.588 763.655L908.268 721.319L834.495 712.863L799.787 778.516L822.107 820.851L853.709 824.47L839.052 852.762L861.541 895.003L935.347 903.156L935.356 903.154ZM927.617 832.709L912.857 860.906L881.225 857.409L895.987 829.221L927.617 832.709ZM841.937 783.329L856.814 755.19L888.434 758.815L873.556 786.945L841.937 783.329Z" stroke="#1B2F4E" stroke-miterlimit="10"/>
<path d="M1038.55 683.04L1042.4 613.145L1042.43 613.142L1042.41 613.126L1042.44 613.113L1042.41 613.089L1006.63 585.627L978.233 594.958L978.084 595.005L978.087 595.023L940.082 607.407L926.29 611.874L918.835 614.285L911.537 616.648L911.527 616.64L913.304 586.682L941.868 577.438L944.249 537.489L877.6 559.046L877.601 559.055L873.454 628.988L873.505 629.027L873.391 629.06L873.4 629.059L891.003 642.568L909.158 656.615L922.07 652.434L937.703 647.374L937.716 647.19L975.904 634.964L1004.37 625.614L1004.38 625.622L1002.73 655.555L974.207 664.912L971.991 704.875L1038.55 683.04Z" stroke="#1B2F4E" stroke-miterlimit="10"/>
<path d="M968.07 684.078L953.048 667.145L953.038 667.137L953.029 667.138L941.775 654.469L928.353 639.572L926.576 637.568L920.63 630.87L915.329 624.879L914.722 624.958L903.432 626.448L890.026 628.158L890.069 628.207L889.408 628.293L881.787 643.372L881.744 643.459L881.753 643.458L871.509 663.611L863.785 678.731L863.713 678.74L863.704 678.741L856.749 692.508L853.488 698.89L853.523 698.886L853.495 698.944L866.143 697.278L878.815 695.663L886.531 680.544L886.467 680.47L896.854 660.308L904.512 645.16L904.728 644.724L905.047 645.082L905.057 645.09L905.111 645.083L910.964 651.62L916.434 657.734L931.476 674.61L931.467 674.612L931.53 674.676L942.744 687.324L968.072 684.096L968.061 684.079L968.07 684.078Z" stroke="#1B2F4E" stroke-miterlimit="10"/>
<path d="M853.09 705.638L868.121 722.57L868.13 722.569L879.385 735.247L892.807 750.144L894.593 752.147L900.539 758.845L905.831 764.837L906.438 764.758L917.728 763.268L931.134 761.558L931.091 761.509L931.752 761.424L939.381 746.334L939.416 746.257L939.415 746.248L949.659 726.104L957.375 710.985L957.456 710.975L964.411 697.208L967.672 690.826L967.636 690.83L967.665 690.772L955.017 692.438L942.345 694.053L934.628 709.163L934.702 709.245L924.314 729.407L916.657 744.554L916.432 744.992L916.113 744.634L916.112 744.625L916.049 744.633L910.196 738.096L904.734 731.981L889.693 715.105L889.638 715.03L878.416 702.392L853.088 705.62L853.108 705.636L853.09 705.638Z" stroke="#1B2F4E" stroke-miterlimit="10"/>
<path d="M802.613 805.088L836.284 822.294L881.176 845.25L873.983 788.834L795.42 748.672L729.437 807.266L736.628 863.673L774.334 830.195L802.613 805.088Z" stroke="#1B2F4E" stroke-miterlimit="10"/>
<path d="M634.032 727.575L668.466 661.776L645.977 619.535L614.485 616.066L614.467 616.068L629.263 588.075L606.943 545.74L533.17 537.284L498.462 602.936L520.783 645.272L552.384 648.89L537.727 677.183L560.217 719.424L634.023 727.576L634.032 727.575ZM626.293 657.129L611.532 685.326L579.901 681.83L594.662 653.642L626.293 657.129ZM540.612 607.75L555.489 579.61L587.11 583.235L572.232 611.366L540.612 607.75Z" stroke="#1B2F4E" stroke-miterlimit="10"/>
<path d="M787.094 560.763L758.329 528.63L730.772 532.255L722.471 548.676L710.27 534.93L682.7 538.448L663.075 576.852L691.71 609.102L719.281 605.584L727.687 589.131L740.087 602.869L767.643 599.244L787.112 560.76L787.094 560.763ZM747.207 550.622L759.539 564.397L751.193 580.897L738.87 567.121L747.207 550.622ZM702.904 587.173L690.629 573.345L699.043 556.882L711.309 570.711L702.904 587.173Z" stroke="#1B2F4E" stroke-miterlimit="10"/>
<path d="M798.566 576.593L806.233 561.444L794.9 548.794L805.118 528.59L831.538 558.11L813.662 593.462L798.566 576.593Z" stroke="#1B2F4E" stroke-miterlimit="10"/>
<path d="M994.318 489.217L960.878 451.856L960.886 451.846L960.868 451.849L960.883 451.82L960.847 451.824L928.826 456.047L919.164 475.152L919.114 475.249L919.124 475.257L906.151 500.778L901.427 510.031L898.868 515.033L896.368 519.927L896.359 519.928L882.085 503.852L891.875 484.694L872.845 463.256L850.009 507.936L883.326 545.466L883.37 545.461L883.334 545.529L899.1 543.459L915.4 541.373L919.829 532.713L925.184 522.234L925.098 522.127L938.251 496.601L947.932 477.438L947.941 477.437L962.26 493.435L952.556 512.627L971.668 533.991L994.318 489.217Z" stroke="#1B2F4E" stroke-miterlimit="10"/>
<path d="M737.216 507.461L741.077 437.566L741.095 437.563L741.084 437.547L741.118 437.533L741.079 437.511L705.298 410.058L676.908 419.379L676.76 419.425L676.753 419.444L638.758 431.827L624.965 436.295L617.51 438.706L610.212 441.069L610.202 441.061L611.98 411.103L640.543 401.859L642.925 361.91L576.275 383.467L576.276 383.476L572.121 453.41L572.172 453.449L572.067 453.48L589.679 466.989L607.824 481.037L620.746 476.854L636.379 471.794L636.391 471.611L674.571 459.386L703.047 450.035L703.058 450.043L701.404 479.976L672.874 489.333L670.658 529.297L737.216 507.461Z" stroke="#1B2F4E" stroke-miterlimit="10"/>
<path d="M636.376 471.913L636.49 471.88L636.493 471.761L636.376 471.913Z" stroke="#1B2F4E" stroke-miterlimit="10"/>
<path d="M839.804 624.072L818.007 599.722L818.006 599.713L817.997 599.714L818.003 599.695L817.985 599.698L797.102 602.449L790.803 614.904L790.767 614.973L790.777 614.98L782.314 631.622L779.234 637.655L777.567 640.914L775.937 644.106L775.928 644.107L766.62 633.62L773.006 621.136L760.601 607.152L745.707 636.285L767.429 660.754L767.465 660.749L767.435 660.798L777.716 659.448L788.351 658.088L791.235 652.444L794.727 645.605L794.664 645.54L803.245 628.892L809.557 616.399L809.566 616.398L818.903 626.826L812.575 639.339L825.038 653.279L839.805 624.081L839.804 624.072Z" stroke="#1B2F4E" stroke-miterlimit="10"/>
<path d="M794.76 645.646L794.79 645.597L794.748 645.557L794.76 645.646Z" stroke="#1B2F4E" stroke-miterlimit="10"/>
<path d="M726.369 694.003L727.711 671.407L727.718 671.396L727.708 671.389L728.714 654.477L729.752 634.445L729.906 631.773L730.439 622.845L730.929 614.85L730.444 614.476L721.415 607.542L710.722 599.27L710.712 599.335L710.188 598.93L694.129 604.21L694.042 604.239L672.556 611.248L656.409 616.475L656.349 616.429L656.34 616.43L641.692 621.244L634.873 623.445L634.895 623.47L634.843 623.495L644.961 631.26L655.059 639.073L671.206 633.846L671.211 633.746L692.809 626.831L708.938 621.534L709.4 621.383L709.372 621.868L709.373 621.877L709.422 621.907L708.932 630.674L708.475 638.856L707.185 661.428L707.176 661.429L707.17 661.521L706.167 678.387L706.168 678.396L726.352 694.015L726.359 693.996L726.369 694.003Z" stroke="#1B2F4E" stroke-miterlimit="10"/>
<path d="M893.749 544.161L878.729 527.237L878.727 527.228L878.709 527.23L867.464 514.55L854.041 499.654L852.256 497.651L846.309 490.953L841.009 484.962L840.402 485.05L840.401 485.041L829.12 486.53L815.706 488.241L815.758 488.289L815.096 488.374L807.468 503.464L807.432 503.541L807.433 503.55L797.19 523.703L789.473 538.813L789.393 538.823L789.394 538.832L782.43 552.6L779.176 558.972L779.212 558.968L779.183 559.026L791.831 557.359L804.495 555.746L812.221 540.635L812.147 540.553L822.534 520.391L830.192 505.243L830.417 504.805L830.737 505.173L830.799 505.165L836.644 511.712L842.114 517.817L857.156 534.693L857.157 534.702L857.211 534.768L868.433 547.405L893.752 544.179L893.74 544.162L893.749 544.161Z" stroke="#1B2F4E" stroke-miterlimit="10"/>
<path d="M778.779 565.72L793.801 582.653L793.802 582.662L793.82 582.659L805.064 595.33L818.487 610.226L820.273 612.23L826.219 618.928L831.519 624.919L832.127 624.84L843.409 623.36L856.823 621.649L856.78 621.591L857.441 621.505L865.062 606.426L865.105 606.338L865.096 606.34L875.339 586.187L883.056 571.077L883.137 571.067L883.135 571.058L890.1 557.29L893.361 550.907L893.325 550.912L893.354 550.854L880.697 552.521L868.033 554.135L860.308 569.255L860.381 569.327L849.994 589.49L842.338 604.646L842.12 605.074L841.801 604.716L841.791 604.708L841.738 604.715L835.885 598.178L830.415 592.072L815.373 575.196L815.381 575.186L815.318 575.122L804.104 562.474L778.777 565.702L778.788 565.718L778.779 565.72Z" stroke="#1B2F4E" stroke-miterlimit="10"/>
<path d="M666.745 508.499L651.714 491.567L651.705 491.568L640.451 478.889L627.028 463.993L625.242 461.989L619.305 455.29L614.005 449.299L613.397 449.378L602.107 450.868L588.702 452.578L588.744 452.627L588.083 452.713L580.454 467.802L580.419 467.88L570.176 488.032L562.46 503.151L562.38 503.162L555.424 516.928L552.163 523.311L552.199 523.306L552.17 523.364L564.818 521.698L577.491 520.083L585.207 504.964L585.134 504.892L595.521 484.73L603.179 469.582L603.403 469.144L603.722 469.503L603.724 469.511L603.786 469.503L609.639 476.041L615.101 482.156L630.143 499.032L630.198 499.107L641.42 511.744L666.747 508.516L666.727 508.501L666.745 508.499Z" stroke="#1B2F4E" stroke-miterlimit="10"/>
<path d="M551.766 530.058L566.788 546.991L566.797 546.99L566.805 546.989L578.06 559.668L591.483 574.564L593.259 576.569L599.206 583.267L604.506 589.258L605.114 589.179L616.404 587.689L629.809 585.979L629.766 585.93L630.427 585.844L638.047 570.756L638.092 570.677L638.083 570.678L648.326 550.526L656.051 535.406L656.122 535.396L656.131 535.395L663.087 521.629L666.348 515.246L666.312 515.251L666.341 515.192L653.693 516.859L641.02 518.474L633.303 533.584L633.368 533.666L622.981 553.828L615.323 568.976L615.107 569.413L614.788 569.054L614.778 569.047L614.725 569.054L608.872 562.516L603.401 556.402L588.359 539.526L588.368 539.525L588.304 539.451L577.091 526.813L551.763 530.041L551.775 530.057L551.766 530.058Z" stroke="#1B2F4E" stroke-miterlimit="10"/>
<path d="M887.533 794.828L889.929 754.641L889.926 754.624L889.916 754.616L891.703 724.52L893.556 688.901L893.829 684.141L894.775 668.237L895.642 654.033L894.784 653.372L878.714 641.044L859.7 626.319L859.689 626.447L858.75 625.724L830.187 635.104L830.038 635.15L830.041 635.168L791.81 647.627L763.099 656.926L762.988 656.841L762.97 656.843L736.908 665.408L724.78 669.333L724.831 669.372L724.726 669.404L742.733 683.224L760.697 697.132L789.416 687.832L789.428 687.64L827.843 675.348L856.53 665.933L857.358 665.663L857.305 666.514L857.306 666.523L857.388 666.595L856.519 682.18L855.716 696.739L853.415 736.886L853.397 736.889L853.39 737.044L851.602 767.058L887.509 794.859L887.513 794.813L887.533 794.828Z" stroke="#1B2F4E" stroke-miterlimit="10"/>
<path d="M715.795 677.321L713.409 717.516L713.401 717.526L713.421 717.541L711.624 747.629L709.782 783.256L709.5 788.017L708.552 803.913L707.686 818.117L708.554 818.785L724.614 831.114L743.637 845.83L743.64 845.711L744.578 846.434L773.142 837.054L773.289 836.999L773.297 836.989L811.518 824.522L840.237 815.222L840.348 815.307L840.357 815.306L866.429 806.749L878.547 802.816L878.497 802.777L878.611 802.744L860.604 788.924L842.632 775.026L813.913 784.326L813.9 784.509L775.493 796.8L746.799 806.225L745.98 806.494L746.023 805.635L746.03 805.625L745.95 805.562L746.809 789.969L747.62 775.409L749.922 735.271L749.93 735.26L749.946 735.104L751.735 705.09L715.818 677.29L715.815 677.336L715.795 677.321Z" stroke="#1B2F4E" stroke-miterlimit="10"/>
<path d="M737.045 508.029L780.486 530.238L838.393 559.839L829.118 487.075L727.77 435.265L642.656 510.839L651.941 583.61L700.57 540.421L737.045 508.029Z" stroke="#1B2F4E" stroke-miterlimit="10"/>
<path d="M501.279 629.51L534.96 646.714L579.851 669.671L572.658 613.255L494.095 573.093L494.086 573.094L428.112 631.687L435.304 688.094L473 654.616L501.279 629.51Z" stroke="#1B2F4E" stroke-miterlimit="10"/>
<path d="M507.037 984.073L541.471 918.274L518.981 876.033L487.49 872.564L487.472 872.566L502.268 844.573L479.948 802.238L406.175 793.781L371.467 859.434L393.787 901.769L425.389 905.388L410.732 933.681L433.221 975.921L507.028 984.074L507.037 984.073ZM499.297 913.627L484.537 941.824L452.905 938.328L467.667 910.139L499.297 913.627ZM413.617 864.247L428.494 836.108L460.115 839.733L445.237 867.863L413.617 864.247Z" stroke="#1B2F4E" stroke-miterlimit="10"/>
<path d="M660.108 817.259L631.342 785.126L603.786 788.752L595.485 805.173L583.283 791.427L555.713 794.945L536.089 833.349L564.724 865.599L592.294 862.08L600.7 845.627L613.1 859.366L640.657 855.74L660.125 817.257L660.108 817.259ZM620.22 807.119L632.552 820.894L624.207 837.393L611.884 823.618L620.22 807.119ZM575.918 843.669L563.642 829.842L572.056 813.379L584.323 827.207L575.918 843.669Z" stroke="#1B2F4E" stroke-miterlimit="10"/>
<path d="M671.571 833.091L679.238 817.942L667.914 805.29L678.123 785.088L704.551 814.607L686.666 849.96L671.571 833.091Z" stroke="#1B2F4E" stroke-miterlimit="10"/>
<path d="M867.332 745.713L833.893 708.362L833.9 708.343L833.882 708.345L833.898 708.325L833.862 708.33L801.83 712.544L792.169 731.649L792.128 731.754L779.157 757.285L774.432 766.529L771.882 771.529L769.382 776.423L769.373 776.424L755.098 760.348L764.881 741.2L745.858 719.752L723.024 764.441L756.339 801.963L756.384 801.957L756.348 802.025L772.105 799.956L788.415 797.879L788.414 797.87L792.833 789.211L798.189 778.732L798.104 778.634L811.256 753.098L820.938 733.945L820.947 733.944L835.274 749.931L825.56 769.125L844.681 790.487L867.332 745.713Z" stroke="#1B2F4E" stroke-miterlimit="10"/>
<path d="M798.252 778.796L798.296 778.718L798.233 778.653L798.252 778.796Z" stroke="#1B2F4E" stroke-miterlimit="10"/>
<path d="M610.23 763.958L614.083 694.072L614.108 694.06L614.089 694.053L614.124 694.04L614.093 694.007L578.312 666.554L549.913 675.876L549.766 675.932L549.767 675.941L511.763 688.325L497.97 692.793L490.516 695.212L483.218 697.575L483.207 697.559L484.985 667.6L513.548 658.357L515.929 618.408L449.281 639.973L445.135 709.906L445.185 709.945L445.08 709.977L462.685 723.495L480.839 737.542L480.838 737.533L493.751 733.352L509.384 728.292L509.396 728.108L547.586 715.891L576.053 706.541L576.063 706.549L574.409 736.473L545.888 745.839L543.672 785.803L610.23 763.958Z" stroke="#1B2F4E" stroke-miterlimit="10"/>
<path d="M509.382 728.419L509.495 728.377L509.506 728.258L509.382 728.419Z" stroke="#1B2F4E" stroke-miterlimit="10"/>
<path d="M712.819 880.578L691.011 856.22L691.019 856.21L691.001 856.212L691.017 856.192L690.99 856.195L670.107 858.947L663.809 871.411L663.78 871.469L663.782 871.478L655.327 888.119L652.239 894.152L650.581 897.411L648.95 900.602L648.941 900.603L639.633 890.116L646.019 877.632L633.605 863.65L618.721 892.781L618.722 892.79L640.444 917.259L640.47 917.256L640.448 917.295L650.73 915.944L661.355 914.586L664.24 908.942L667.732 902.102L667.678 902.037L676.25 885.39L682.571 872.896L691.909 883.333L685.581 895.846L698.052 909.776L712.819 880.578Z" stroke="#1B2F4E" stroke-miterlimit="10"/>
<path d="M667.775 902.151L667.804 902.093L667.762 902.053L667.775 902.151Z" stroke="#1B2F4E" stroke-miterlimit="10"/>
<path d="M599.374 950.501L600.725 927.912L600.724 927.903L600.714 927.895L601.719 910.975L602.758 890.952L602.919 888.269L603.444 879.352L603.933 871.347L603.449 870.974L594.42 864.04L583.727 855.768L583.727 855.84L583.192 855.428L567.142 860.706L567.055 860.736L567.056 860.744L545.561 867.746L529.423 872.972L529.362 872.925L529.353 872.926L514.697 877.742L507.879 879.952L507.909 879.975L507.848 879.992L517.966 887.758L528.073 895.579L544.221 890.352L544.225 890.242L565.823 883.337L581.953 878.039L582.415 877.888L582.385 878.365L582.387 878.374L582.427 878.405L581.946 887.171L581.49 895.362L580.19 917.926L580.184 918.018L579.173 934.893L599.367 950.52L599.364 950.493L599.374 950.501Z" stroke="#1B2F4E" stroke-miterlimit="10"/>
<path d="M766.763 800.658L751.742 783.733L751.732 783.726L751.723 783.727L740.469 771.048L727.046 756.152L725.27 754.156L719.324 747.458L714.024 741.467L713.416 741.546L702.125 743.027L688.72 744.737L688.762 744.786L688.102 744.881L680.472 759.961L680.437 760.039L680.447 760.046L670.204 780.199L662.478 795.31L662.406 795.32L662.399 795.33L655.443 809.096L652.182 815.479L652.218 815.474L652.189 815.532L664.837 813.866L677.51 812.251L685.226 797.132L685.161 797.05L695.54 776.898L703.205 761.74L703.423 761.312L703.742 761.67L703.752 761.678L703.805 761.671L709.658 768.209L715.128 774.314L730.17 791.19L730.162 791.2L730.216 791.266L741.439 803.912L766.766 800.684L766.754 800.659L766.763 800.658Z" stroke="#1B2F4E" stroke-miterlimit="10"/>
<path d="M651.785 822.226L666.814 839.149L666.816 839.158L666.825 839.157L678.079 851.836L691.502 866.732L693.287 868.736L699.224 875.426L704.524 881.417L705.132 881.338L716.423 879.856L729.828 878.146L729.785 878.097L730.446 878.012L738.075 862.922L738.111 862.845L738.11 862.836L748.353 842.684L756.07 827.574L756.141 827.564L756.149 827.554L763.104 813.788L766.365 807.405L766.33 807.41L766.36 807.36L753.712 809.027L741.039 810.642L733.322 825.752L733.387 825.834L723.008 845.986L715.342 861.144L715.126 861.581L714.806 861.213L714.744 861.222L708.89 854.675L703.429 848.569L688.387 831.693L688.386 831.684L688.332 831.618L677.109 818.972L651.782 822.208L651.803 822.224L651.785 822.226Z" stroke="#1B2F4E" stroke-miterlimit="10"/>
<path d="M539.75 764.996L524.728 748.063L524.719 748.064L524.71 748.065L513.464 735.386L500.033 720.491L498.256 718.486L492.31 711.788L487.009 705.797L486.403 705.885L486.402 705.876L475.112 707.366L461.707 709.076L461.749 709.125L461.088 709.211L453.468 724.299L453.424 724.377L453.434 724.385L443.191 744.538L435.474 759.648L435.393 759.658L435.394 759.667L428.429 773.426L425.168 779.809L425.204 779.804L425.175 779.862L437.823 778.196L450.496 776.581L458.213 761.471L458.147 761.388L468.535 741.226L476.192 726.079L476.408 725.642L476.728 726.009L476.737 726.008L476.791 726.001L482.645 732.547L488.115 738.653L503.156 755.529L503.149 755.539L503.211 755.603L514.424 768.242L539.752 765.014L539.741 764.997L539.75 764.996Z" stroke="#1B2F4E" stroke-miterlimit="10"/>
<path d="M424.77 786.556L439.801 803.488L439.802 803.497L439.82 803.495L451.065 816.166L464.487 831.062L466.273 833.065L472.219 839.763L477.52 845.754L478.127 845.675L478.119 845.677L489.41 844.195L502.824 842.484L502.771 842.427L503.432 842.342L511.062 827.261L511.096 827.175L521.34 807.022L529.057 791.912L529.137 791.902L529.136 791.893L536.1 778.125L539.352 771.744L539.317 771.748L539.345 771.69L526.697 773.356L514.034 774.97L506.309 790.09L506.382 790.163L495.995 810.325L488.337 825.473L488.112 825.911L487.793 825.552L487.792 825.543L487.729 825.551L481.877 819.014L476.415 812.899L461.374 796.032L461.373 796.023L461.319 795.957L450.096 783.311L424.768 786.538L424.788 786.554L424.77 786.556Z" stroke="#1B2F4E" stroke-miterlimit="10"/>
<path d="M760.547 1051.33L762.942 1011.14L762.941 1011.13L762.921 1011.11L764.717 981.017L766.56 945.398L766.843 940.637L767.789 924.733L768.655 910.529L767.788 909.869L751.728 897.541L732.705 882.825L732.703 882.944L731.764 882.22L703.2 891.6L703.053 891.656L703.045 891.666L664.823 904.124L636.104 913.424L635.993 913.338L635.985 913.349L609.913 921.906L597.794 925.83L597.844 925.869L597.731 925.91L615.737 939.722L633.71 953.629L662.43 944.329L662.442 944.145L700.849 931.854L729.544 922.43L730.363 922.16L730.318 923.011L730.312 923.03L730.393 923.092L729.532 938.676L728.722 953.246L726.42 993.384L726.411 993.385L726.395 993.542L724.606 1023.56L760.523 1051.36L760.527 1051.32L760.547 1051.33Z" stroke="#1B2F4E" stroke-miterlimit="10"/>
<path d="M588.809 933.817L586.414 974.013L586.415 974.022L586.426 974.039L584.639 1004.13L582.787 1039.75L582.513 1044.51L581.567 1060.42L580.7 1074.61L580.701 1074.62L581.559 1075.28L597.628 1087.61L616.642 1102.33L616.653 1102.21L617.592 1102.93L646.156 1093.55L646.303 1093.5L646.302 1093.49L684.533 1081.03L713.243 1071.73L713.353 1071.8L713.371 1071.8L739.434 1063.25L751.562 1059.32L751.512 1059.28L751.616 1059.24L733.61 1045.43L715.646 1031.52L686.926 1040.82L686.914 1041.01L648.498 1053.3L619.812 1062.72L618.984 1062.99L619.038 1062.14L619.035 1062.12L618.955 1062.06L619.824 1046.47L620.625 1031.91L622.927 991.768L622.945 991.766L622.951 991.602L624.739 961.587L624.748 961.586L588.833 933.796L588.829 933.833L588.809 933.817Z" stroke="#1B2F4E" stroke-miterlimit="10"/>
<path d="M610.059 764.534L653.49 786.735L711.407 816.335L702.132 743.572L600.783 691.762L600.774 691.763L515.671 767.344L524.946 840.108L573.576 796.928L610.059 764.534Z" stroke="#1B2F4E" stroke-miterlimit="10"/>
<path d="M374.293 886.006L407.966 903.221L452.856 926.168L445.663 869.753L367.1 829.59L301.126 888.183L308.308 944.591L346.014 911.113L374.293 886.006Z" stroke="#1B2F4E" stroke-miterlimit="10"/>
<path d="M810.662 1161.43L845.097 1095.63L822.607 1053.39L791.115 1049.92L791.097 1049.92L805.893 1021.93L783.573 979.59L709.8 971.134L675.093 1036.79L697.413 1079.12L729.015 1082.74L714.358 1111.03L736.847 1153.27L810.653 1161.43L810.662 1161.43ZM802.923 1090.98L788.163 1119.18L756.531 1115.68L771.293 1087.49L802.923 1090.98ZM717.242 1041.6L732.119 1013.46L763.74 1017.09L748.862 1045.22L717.242 1041.6Z" stroke="#1B2F4E" stroke-miterlimit="10"/>
<path d="M963.723 994.604L934.958 962.471L907.402 966.097L899.1 982.518L886.899 968.772L859.329 972.29L839.704 1010.69L868.34 1042.94L895.91 1039.43L904.316 1022.97L916.716 1036.71L944.272 1033.09L963.741 994.602L963.723 994.604ZM923.836 984.464L936.168 998.239L927.823 1014.74L915.499 1000.96L923.836 984.464ZM879.533 1021.01L867.258 1007.19L875.672 990.724L887.938 1004.55L879.533 1021.01Z" stroke="#1B2F4E" stroke-miterlimit="10"/>
<path d="M913.846 941.303L917.707 871.416L917.724 871.405L917.714 871.397L917.749 871.384L917.708 871.352L881.927 843.899L853.537 853.22L853.39 853.276L853.382 853.286L815.388 865.678L801.594 870.136L794.141 872.556L786.843 874.919L786.833 874.911L788.609 844.944L817.174 835.709L819.554 795.752L752.906 817.317L748.75 887.251L748.801 887.29L748.696 887.322L766.309 900.839L784.455 914.887L784.454 914.878L784.455 914.887L797.375 910.696L813.008 905.636L813.021 905.452L851.201 893.236L879.678 883.885L879.688 883.893L878.033 913.817L849.504 923.184L847.288 963.148L913.846 941.303Z" stroke="#1B2F4E" stroke-miterlimit="10"/>
<path d="M813.006 905.763L813.119 905.721L813.122 905.603L813.006 905.763Z" stroke="#1B2F4E" stroke-miterlimit="10"/>
<path d="M902.998 1127.84L904.341 1105.26L904.349 1105.25L904.339 1105.24L905.344 1088.32L906.383 1068.3L906.535 1065.61L907.069 1056.7L907.558 1048.69L907.073 1048.32L898.045 1041.39L887.351 1033.11L887.343 1033.19L886.818 1032.78L870.758 1038.05L870.671 1038.08L870.672 1038.09L849.186 1045.09L833.038 1050.32L832.978 1050.27L832.969 1050.27L818.321 1055.09L811.504 1057.3L811.534 1057.32L811.472 1057.34L821.591 1065.1L831.689 1072.92L847.836 1067.7L847.84 1067.59L869.439 1060.68L885.568 1055.38L886.03 1055.23L886.001 1055.71L886.002 1055.72L886.053 1055.76L885.561 1064.52L885.106 1072.71L883.814 1095.27L883.805 1095.27L883.799 1095.36L882.797 1112.24L902.983 1127.87L902.988 1127.84L902.998 1127.84Z" stroke="#1B2F4E" stroke-miterlimit="10"/>
<path d="M843.374 942.34L828.345 925.417L828.343 925.408L828.334 925.409L817.08 912.731L803.657 897.834L801.872 895.831L795.935 889.141L790.634 883.141L790.027 883.229L790.026 883.22L778.736 884.71L765.331 886.42L765.374 886.469L764.712 886.555L757.084 901.644L757.048 901.721L757.049 901.73L746.806 921.883L739.089 936.993L739.018 937.002L739.01 937.012L732.054 950.779L728.792 957.152L728.828 957.148L728.799 957.206L741.447 955.54L754.12 953.925L761.837 938.815L761.763 938.734L772.151 918.58L779.808 903.424L780.033 902.986L780.353 903.353L780.415 903.345L786.269 909.891L791.73 915.998L806.772 932.874L806.773 932.883L806.827 932.948L818.049 945.586L843.376 942.358L843.356 942.342L843.374 942.34Z" stroke="#1B2F4E" stroke-miterlimit="10"/>
<path d="M728.395 963.9L743.417 980.833L743.427 980.841L743.436 980.84L754.689 993.509L768.113 1008.41L769.889 1010.41L775.835 1017.11L781.135 1023.1L781.743 1023.02L793.034 1021.54L806.439 1019.83L806.397 1019.78L807.057 1019.69L814.678 1004.61L814.722 1004.53L814.712 1004.52L824.955 984.367L832.681 969.256L832.753 969.247L832.76 969.237L839.716 955.47L842.977 949.088L842.941 949.092L842.97 949.034L830.322 950.7L817.649 952.315L809.933 967.434L809.998 967.517L799.619 987.669L791.954 1002.83L791.736 1003.25L791.417 1002.9L791.407 1002.89L791.354 1002.9L785.501 996.358L780.031 990.253L764.989 973.377L764.997 973.366L764.934 973.302L753.72 960.654L728.393 963.882L728.404 963.899L728.395 963.9Z" stroke="#1B2F4E" stroke-miterlimit="10"/>
<path d="M892.433 1111.16L892.424 1111.16L890.038 1151.36L890.03 1151.37L890.051 1151.38L888.255 1181.48L886.411 1217.1L886.129 1221.86L885.183 1237.76L884.316 1251.97L885.183 1252.63L901.244 1264.96L920.266 1279.67L920.269 1279.55L921.207 1280.28L949.771 1270.9L949.919 1270.84L949.926 1270.83L988.148 1258.37L1016.87 1249.07L1016.98 1249.16L1016.99 1249.15L1043.06 1240.59L1055.18 1236.67L1055.13 1236.63L1055.24 1236.59L1037.23 1222.77L1019.26 1208.87L990.542 1218.17L990.529 1218.35L952.122 1230.64L923.428 1240.07L922.609 1240.34L922.662 1239.48L922.66 1239.47L922.579 1239.4L923.439 1223.82L924.249 1209.25L926.552 1169.11L926.561 1169.11L926.577 1168.95L928.365 1138.94L892.449 1111.14L892.444 1111.18L892.433 1111.16Z" stroke="#1B2F4E" stroke-miterlimit="10"/>
<path d="M913.675 941.879L957.115 964.079L1015.02 993.689L1015.02 993.68L1015.02 993.689L1005.75 920.917L904.399 869.107L819.286 944.689L828.57 1017.45L877.201 974.271L913.675 941.879Z" stroke="#1B2F4E" stroke-miterlimit="10"/>
<path d="M677.908 1063.35L711.59 1080.56L756.48 1103.51L749.289 1047.11L749.288 1047.1L670.726 1006.94L670.716 1006.94L670.717 1006.94L604.741 1065.53L611.933 1121.94L649.629 1088.46L677.908 1063.35Z" stroke="#1B2F4E" stroke-miterlimit="10"/>
<path d="M617.178 1372.23L651.612 1306.43L629.123 1264.19L597.631 1260.72L597.613 1260.72L612.409 1232.73L590.089 1190.39L516.316 1181.93L481.608 1247.59L503.928 1289.92L535.53 1293.54L520.873 1321.83L543.363 1364.07L617.169 1372.23L617.178 1372.23ZM609.439 1301.78L594.678 1329.98L563.047 1326.48L577.808 1298.29L609.439 1301.78ZM523.758 1252.4L538.635 1224.26L570.256 1227.89L555.378 1256.02L523.758 1252.4Z" stroke="#1B2F4E" stroke-miterlimit="10"/>
<path d="M770.249 1205.41L741.484 1173.28L713.927 1176.91L705.626 1193.33L693.425 1179.58L665.855 1183.1L646.23 1221.5L674.865 1253.75L702.435 1250.23L710.841 1233.78L723.242 1247.52L750.798 1243.89L770.267 1205.41L770.249 1205.41ZM730.361 1195.27L742.694 1209.05L734.348 1225.55L722.025 1211.77L730.361 1195.27ZM686.059 1231.82L673.784 1218L682.197 1201.53L694.464 1215.36L686.059 1231.82Z" stroke="#1B2F4E" stroke-miterlimit="10"/>
<path d="M781.712 1221.24L789.379 1206.1L778.055 1193.44L788.264 1173.24L814.692 1202.76L796.807 1238.11L781.712 1221.24Z" stroke="#1B2F4E" stroke-miterlimit="10"/>
<path d="M977.473 1133.87L944.034 1096.52L944.041 1096.5L944.023 1096.5L944.039 1096.48L944.003 1096.48L911.972 1100.7L902.319 1119.8L902.27 1119.91L902.271 1119.92L889.298 1145.44L884.573 1154.68L882.023 1159.68L879.523 1164.58L879.514 1164.58L865.239 1148.5L875.031 1129.35L856 1107.91L833.165 1152.59L866.481 1190.12L866.525 1190.11L866.489 1190.18L882.255 1188.11L898.556 1186.03L898.555 1186.02L902.983 1177.36L908.33 1166.89L908.245 1166.79L921.397 1141.25L931.088 1122.1L931.097 1122.1L945.415 1138.08L935.702 1157.28L954.822 1178.64L954.824 1178.65L977.473 1133.87Z" stroke="#1B2F4E" stroke-miterlimit="10"/>
<path d="M720.371 1152.11L724.233 1082.22L724.25 1082.21L724.231 1082.21L724.274 1082.19L724.234 1082.16L688.453 1054.71L660.054 1064.03L659.907 1064.09L659.908 1064.09L621.914 1076.49L608.12 1080.94L600.657 1083.37L593.36 1085.73L593.348 1085.71L595.126 1055.75L623.699 1046.52L626.08 1006.56L559.431 1028.13L559.422 1028.13L555.276 1098.06L555.326 1098.1L555.221 1098.13L572.826 1111.65L590.981 1125.7L590.979 1125.69L603.892 1121.51L619.525 1116.44L619.537 1116.26L657.727 1104.04L686.195 1094.69L686.205 1094.7L684.55 1124.63L656.03 1133.99L653.814 1173.96L720.371 1152.11Z" stroke="#1B2F4E" stroke-miterlimit="10"/>
<path d="M619.523 1116.57L619.636 1116.53L619.648 1116.41L619.523 1116.57Z" stroke="#1B2F4E" stroke-miterlimit="10"/>
<path d="M822.96 1268.73L801.153 1244.37L801.16 1244.36L801.151 1244.36L801.158 1244.35L801.131 1244.35L780.248 1247.1L773.95 1259.56L773.922 1259.62L773.923 1259.63L765.468 1276.27L762.389 1282.3L760.722 1285.56L759.092 1288.76L759.083 1288.76L749.775 1278.27L756.16 1265.79L743.747 1251.8L728.863 1280.94L750.585 1305.41L750.612 1305.41L750.589 1305.45L760.871 1304.1L771.498 1302.75L771.496 1302.74L774.39 1297.09L777.873 1290.26L777.819 1290.19L786.4 1273.54L792.712 1261.05L792.721 1261.05L802.059 1271.49L795.722 1284L808.193 1297.93L822.96 1268.73Z" stroke="#1B2F4E" stroke-miterlimit="10"/>
<path d="M777.916 1290.3L777.945 1290.25L777.903 1290.21L777.916 1290.3Z" stroke="#1B2F4E" stroke-miterlimit="10"/>
<path d="M709.524 1338.65L710.867 1316.07L710.865 1316.06L710.855 1316.05L711.86 1299.13L712.908 1279.1L713.061 1276.42L713.595 1267.5L714.084 1259.5L713.59 1259.13L713.599 1259.13L704.561 1252.19L693.868 1243.92L693.868 1243.99L693.344 1243.59L677.284 1248.86L677.197 1248.89L677.198 1248.9L655.702 1255.9L639.564 1261.12L639.503 1261.08L639.494 1261.08L624.838 1265.9L618.02 1268.11L618.051 1268.13L617.989 1268.15L628.116 1275.91L638.215 1283.73L654.362 1278.51L654.366 1278.4L675.965 1271.49L692.094 1266.19L692.556 1266.04L692.527 1266.52L692.528 1266.53L692.568 1266.56L692.087 1275.32L691.631 1283.51L690.34 1306.08L690.331 1306.08L690.325 1306.17L689.314 1323.05L709.508 1338.67L709.514 1338.65L709.524 1338.65Z" stroke="#1B2F4E" stroke-miterlimit="10"/>
<path d="M876.905 1188.82L861.883 1171.89L861.873 1171.88L861.864 1171.88L850.62 1159.21L837.187 1144.31L835.412 1142.31L829.465 1135.61L824.165 1129.62L823.557 1129.7L812.266 1131.18L798.861 1132.89L798.903 1132.94L798.243 1133.03L790.622 1148.11L790.578 1148.19L790.588 1148.2L780.345 1168.35L772.628 1183.46L772.548 1183.47L772.54 1183.48L765.584 1197.25L762.323 1203.63L762.359 1203.63L762.33 1203.69L774.978 1202.02L787.651 1200.4L795.367 1185.29L795.302 1185.2L805.69 1165.05L813.347 1149.89L813.564 1149.47L813.883 1149.82L813.893 1149.83L813.946 1149.82L819.799 1156.36L825.269 1162.47L840.311 1179.34L840.303 1179.35L840.366 1179.42L851.58 1192.07L876.908 1188.84L876.896 1188.82L876.905 1188.82Z" stroke="#1B2F4E" stroke-miterlimit="10"/>
<path d="M761.926 1210.38L776.956 1227.3L776.957 1227.31L776.975 1227.31L788.22 1239.99L801.643 1254.89L803.429 1256.89L809.374 1263.58L814.666 1269.58L814.675 1269.58L815.282 1269.49L815.274 1269.5L826.564 1268.01L839.969 1266.3L839.926 1266.25L840.588 1266.17L848.216 1251.08L848.252 1251L848.251 1250.99L858.494 1230.84L866.211 1215.73L866.291 1215.72L866.29 1215.71L873.255 1201.94L876.508 1195.57L876.472 1195.57L876.501 1195.51L863.853 1197.18L851.189 1198.79L851.18 1198.8L843.463 1213.91L843.537 1213.99L833.149 1234.14L825.492 1249.3L825.267 1249.73L824.947 1249.37L824.885 1249.37L819.031 1242.83L813.57 1236.72L798.528 1219.85L798.527 1219.84L798.473 1219.77L787.251 1207.13L761.924 1210.36L761.944 1210.38L761.926 1210.38Z" stroke="#1B2F4E" stroke-miterlimit="10"/>
<path d="M649.891 1153.15L634.87 1136.23L634.869 1136.22L634.851 1136.22L623.606 1123.54L610.183 1108.64L608.397 1106.64L602.451 1099.94L597.15 1093.95L596.544 1094.04L596.543 1094.03L585.262 1095.52L571.848 1097.23L571.89 1097.28L571.229 1097.36L563.609 1112.45L563.565 1112.53L563.575 1112.54L553.332 1132.69L545.615 1147.8L545.534 1147.81L545.536 1147.82L538.571 1161.59L535.309 1167.96L535.345 1167.96L535.316 1168.02L547.973 1166.35L560.637 1164.73L568.363 1149.62L568.288 1149.54L578.676 1129.38L586.333 1114.23L586.549 1113.8L586.87 1114.16L586.878 1114.16L586.932 1114.15L592.786 1120.7L598.256 1126.81L613.298 1143.68L613.29 1143.69L613.353 1143.76L624.566 1156.4L649.893 1153.17L649.882 1153.15L649.891 1153.15Z" stroke="#1B2F4E" stroke-miterlimit="10"/>
<path d="M534.921 1174.71L549.943 1191.64L549.944 1191.65L549.962 1191.65L561.206 1204.32L574.628 1219.22L576.414 1221.22L582.361 1227.92L587.661 1233.91L588.269 1233.83L599.551 1232.35L612.965 1230.64L612.912 1230.58L613.573 1230.5L621.203 1215.41L621.238 1215.33L631.481 1195.18L639.198 1180.07L639.278 1180.06L639.277 1180.05L646.241 1166.28L649.493 1159.9L649.467 1159.9L649.487 1159.84L636.839 1161.51L624.175 1163.12L616.45 1178.24L616.523 1178.32L606.136 1198.48L598.479 1213.63L598.253 1214.06L597.934 1213.71L597.933 1213.7L597.879 1213.7L592.027 1207.17L586.557 1201.06L571.515 1184.18L571.514 1184.18L571.46 1184.11L560.237 1171.46L534.918 1174.69L534.93 1174.71L534.921 1174.71Z" stroke="#1B2F4E" stroke-miterlimit="10"/>
<path d="M870.689 1439.49L873.083 1399.29L873.082 1399.28L873.062 1399.27L874.858 1369.17L876.71 1333.55L876.984 1328.79L877.93 1312.89L878.796 1298.68L877.93 1298.02L877.938 1298.02L861.869 1285.69L842.856 1270.98L842.844 1271.1L841.905 1270.37L813.341 1279.75L813.194 1279.81L813.186 1279.82L774.965 1292.28L746.245 1301.58L746.143 1301.49L746.126 1301.5L720.063 1310.06L707.935 1313.98L707.985 1314.02L707.882 1314.06L725.879 1327.88L743.851 1341.78L772.571 1332.48L772.584 1332.3L810.999 1320.01L839.685 1310.58L840.513 1310.31L840.46 1311.16L840.453 1311.18L840.543 1311.24L839.673 1326.83L838.872 1341.4L836.561 1381.54L836.552 1381.54L836.536 1381.7L834.749 1411.72L870.664 1439.51L870.668 1439.47L870.689 1439.49Z" stroke="#1B2F4E" stroke-miterlimit="10"/>
<path d="M698.95 1321.97L696.555 1362.17L696.556 1362.18L696.576 1362.19L694.78 1392.29L692.928 1427.91L692.654 1432.67L691.708 1448.57L690.842 1462.78L691.709 1463.44L691.7 1463.44L707.769 1475.76L726.783 1490.48L726.794 1490.36L727.733 1491.08L756.297 1481.7L756.444 1481.65L756.443 1481.64L794.674 1469.18L823.384 1459.88L823.495 1459.97L823.512 1459.96L849.575 1451.4L861.703 1447.47L861.653 1447.44L861.757 1447.4L843.751 1433.58L825.787 1419.68L797.067 1428.98L797.055 1429.16L758.639 1441.45L729.953 1450.87L729.126 1451.15L729.179 1450.29L729.176 1450.28L729.096 1450.21L729.965 1434.63L730.766 1420.06L733.077 1379.92L733.086 1379.92L733.101 1379.75L734.889 1349.74L698.974 1321.95L698.97 1321.99L698.95 1321.97Z" stroke="#1B2F4E" stroke-miterlimit="10"/>
<path d="M720.201 1152.69L763.64 1174.89L821.548 1204.49L812.273 1131.73L710.925 1079.92L625.812 1155.5L635.087 1228.26L683.718 1185.08L720.201 1152.69Z" stroke="#1B2F4E" stroke-miterlimit="10"/>
<path d="M484.434 1274.16L518.107 1291.37L563.006 1314.32L555.813 1257.9L477.241 1217.74L411.267 1276.34L418.459 1332.74L456.155 1299.27L484.434 1274.16Z" stroke="#1B2F4E" stroke-miterlimit="10"/>
<path d="M315.854 1196.66L350.289 1130.86L327.799 1088.62L296.307 1085.15L296.29 1085.15L311.086 1057.16L288.766 1014.82L214.993 1006.36L180.285 1072.02L202.605 1114.35L234.207 1117.97L219.55 1146.26L242.039 1188.5L315.845 1196.66L315.854 1196.66ZM308.115 1126.21L293.355 1154.41L261.723 1150.91L276.485 1122.72L308.115 1126.21ZM222.435 1076.83L237.312 1048.69L268.933 1052.32L254.054 1080.45L222.435 1076.83Z" stroke="#1B2F4E" stroke-miterlimit="10"/>
<path d="M468.915 1029.83L440.15 997.701L412.594 1001.33L404.293 1017.75L392.091 1004L364.521 1007.52L344.897 1045.92L373.532 1078.17L401.102 1074.66L409.508 1058.2L421.908 1071.94L449.464 1068.32L468.933 1029.83L468.915 1029.83ZM429.028 1019.69L441.36 1033.47L433.015 1049.97L420.691 1036.19L429.028 1019.69ZM384.726 1056.24L372.45 1042.42L380.864 1025.95L393.131 1039.78L384.726 1056.24Z" stroke="#1B2F4E" stroke-miterlimit="10"/>
<path d="M480.388 1045.66L488.054 1030.52L476.73 1017.86L486.94 997.661L513.368 1027.18L495.483 1062.53L480.388 1045.66Z" stroke="#1B2F4E" stroke-miterlimit="10"/>
<path d="M676.149 958.287L642.701 920.937L642.708 920.918L642.699 920.919L642.705 920.9L642.678 920.904L610.647 925.118L600.986 944.223L600.936 944.33L600.946 944.337L587.974 969.859L583.248 979.103L580.69 984.104L578.199 988.997L578.181 988.999L563.915 972.922L573.698 953.774L554.666 932.327L531.832 977.016L565.147 1014.54L565.192 1014.53L565.156 1014.61L580.921 1012.53L597.232 1010.45L601.65 1001.78L607.006 991.306L606.92 991.208L620.072 965.672L629.755 946.519L629.764 946.518L644.083 962.515L634.377 981.699L653.498 1003.06L653.499 1003.07L676.149 958.287Z" stroke="#1B2F4E" stroke-miterlimit="10"/>
<path d="M607.068 991.37L607.104 991.293L607.05 991.227L607.068 991.37Z" stroke="#1B2F4E" stroke-miterlimit="10"/>
<path d="M419.047 976.532L422.9 906.646L422.925 906.634L422.906 906.627L422.941 906.614L422.9 906.582L387.128 879.128L358.73 888.45L358.582 888.506L358.584 888.515L320.581 900.908L306.786 905.366L299.333 907.786L292.035 910.149L292.025 910.141L293.801 880.174L322.366 870.939L324.746 830.982L258.098 852.547L253.951 922.48L253.993 922.52L253.888 922.552L271.501 936.069L289.647 950.117L289.646 950.108L289.655 950.107L302.567 945.926L318.2 940.866L318.213 940.682L356.402 928.465L384.87 919.115L384.88 919.123L383.225 949.047L354.696 958.414L352.489 998.376L352.48 998.378L419.047 976.532Z" stroke="#1B2F4E" stroke-miterlimit="10"/>
<path d="M318.199 940.993L318.311 940.951L318.323 940.831L318.199 940.993Z" stroke="#1B2F4E" stroke-miterlimit="10"/>
<path d="M521.635 1093.15L499.828 1068.79L499.827 1068.78L499.818 1068.79L499.825 1068.77L499.807 1068.77L478.923 1071.52L472.626 1083.98L472.588 1084.04L472.598 1084.05L464.135 1100.69L461.056 1106.73L459.389 1109.99L457.758 1113.18L448.45 1102.69L454.827 1090.21L442.422 1076.22L427.53 1105.37L449.26 1129.83L449.287 1129.83L449.265 1129.87L459.537 1128.52L470.173 1127.17L470.172 1127.16L473.056 1121.52L476.549 1114.68L476.495 1114.61L485.066 1097.96L491.38 1085.48L491.388 1085.48L500.725 1095.91L494.398 1108.42L506.859 1122.35L521.635 1093.15Z" stroke="#1B2F4E" stroke-miterlimit="10"/>
<path d="M476.591 1114.73L476.611 1114.67L476.579 1114.63L476.591 1114.73Z" stroke="#1B2F4E" stroke-miterlimit="10"/>
<path d="M408.19 1163.08L409.542 1140.49L409.541 1140.48L409.531 1140.47L410.536 1123.55L411.575 1103.53L411.727 1100.84L412.261 1091.93L412.75 1083.92L412.266 1083.55L403.237 1076.62L392.544 1068.34L392.544 1068.41L392.01 1068.01L375.95 1073.28L375.872 1073.31L375.873 1073.32L354.378 1080.32L338.23 1085.55L338.17 1085.5L323.514 1090.32L316.696 1092.53L316.726 1092.55L316.665 1092.57L326.783 1100.33L336.89 1108.15L353.029 1102.93L353.041 1102.82L374.631 1095.91L390.76 1090.61L391.231 1090.46L391.193 1090.94L391.194 1090.95L391.245 1090.99L390.754 1099.75L390.307 1107.94L389.007 1130.5L388.998 1130.5L388.991 1130.59L387.99 1147.47L408.184 1163.09L408.18 1163.07L408.19 1163.08Z" stroke="#1B2F4E" stroke-miterlimit="10"/>
<path d="M575.581 1013.24L560.55 996.308L560.549 996.299L560.54 996.301L549.286 983.631L535.864 968.735L534.078 966.731L528.141 960.032L522.84 954.041L522.233 954.12L510.942 955.601L497.536 957.311L497.58 957.369L496.919 957.455L489.289 972.535L489.254 972.612L489.255 972.621L479.012 992.774L471.295 1007.88L471.223 1007.89L471.215 1007.9L464.26 1021.67L460.999 1028.05L461.035 1028.05L461.006 1028.11L473.654 1026.44L486.327 1024.82L494.042 1009.71L493.978 1009.63L504.357 989.471L512.013 974.315L512.239 973.886L512.558 974.244L512.559 974.253L512.622 974.245L518.475 980.782L523.936 986.889L538.977 1003.76L538.978 1003.77L539.032 1003.84L550.255 1016.49L575.583 1013.26L575.563 1013.24L575.581 1013.24Z" stroke="#1B2F4E" stroke-miterlimit="10"/>
<path d="M460.602 1034.8L475.622 1051.72L475.632 1051.73L475.641 1051.73L486.896 1064.41L500.318 1079.31L502.095 1081.31L508.041 1088.01L513.342 1094L513.948 1093.91L513.95 1093.92L525.239 1092.43L538.645 1090.72L538.602 1090.67L539.263 1090.59L546.883 1075.5L546.927 1075.42L546.917 1075.41L557.161 1055.26L564.887 1040.15L564.958 1040.14L564.966 1040.13L571.921 1026.36L575.183 1019.99L575.148 1019.99L575.176 1019.93L562.528 1021.6L549.856 1023.22L542.139 1038.33L542.204 1038.41L531.824 1058.56L524.159 1073.72L523.943 1074.15L523.623 1073.79L523.614 1073.79L523.56 1073.8L517.706 1067.25L512.237 1061.14L497.195 1044.27L497.203 1044.26L497.14 1044.19L485.927 1031.55L460.599 1034.78L460.61 1034.8L460.602 1034.8Z" stroke="#1B2F4E" stroke-miterlimit="10"/>
<path d="M348.566 977.57L333.546 960.646L333.536 960.638L333.527 960.639L322.272 947.961L308.85 933.064L307.073 931.06L301.126 924.362L295.826 918.371L295.22 918.459L295.218 918.45L283.929 919.94L270.523 921.65L270.566 921.699L269.905 921.784L262.276 936.874L262.24 936.951L262.251 936.959L252.007 957.112L244.281 972.223L244.21 972.232L244.202 972.242L237.247 986.009L233.985 992.382L234.02 992.378L233.992 992.436L246.639 990.77L259.312 989.155L267.029 974.045L266.964 973.962L277.344 953.81L285.009 938.652L285.225 938.216L285.545 938.583L285.554 938.582L285.608 938.575L291.462 945.121L296.931 951.226L311.973 968.102L311.965 968.112L312.019 968.178L323.241 980.816L348.569 977.588L348.557 977.571L348.566 977.57Z" stroke="#1B2F4E" stroke-miterlimit="10"/>
<path d="M233.587 999.13L248.609 1016.06L248.619 1016.07L248.628 1016.07L259.881 1028.74L273.305 1043.64L275.09 1045.64L281.027 1052.34L286.328 1058.33L286.935 1058.25L298.226 1056.77L311.632 1055.06L311.589 1055.01L312.249 1054.92L319.879 1039.83L319.914 1039.76L319.913 1039.75L330.147 1019.6L337.873 1004.49L337.945 1004.48L337.953 1004.47L344.908 990.7L348.169 984.318L348.133 984.322L348.162 984.264L335.514 985.93L322.841 987.545L315.126 1002.66L315.19 1002.74L304.811 1022.9L297.146 1038.06L296.929 1038.48L296.61 1038.13L296.609 1038.12L296.546 1038.13L290.693 1031.59L285.223 1025.48L270.191 1008.61L270.189 1008.6L270.136 1008.53L258.912 995.884L233.585 999.112L233.605 999.128L233.587 999.13Z" stroke="#1B2F4E" stroke-miterlimit="10"/>
<path d="M569.355 1263.91L571.75 1223.71L571.758 1223.7L571.738 1223.69L573.525 1193.59L575.377 1157.97L575.659 1153.21L576.596 1137.31L577.472 1123.1L576.605 1122.44L560.545 1110.11L541.522 1095.4L541.519 1095.52L540.581 1094.79L512.017 1104.17L511.861 1104.23L511.862 1104.24L473.64 1116.7L444.921 1126L444.811 1125.92L444.802 1125.92L418.73 1134.48L406.61 1138.4L406.661 1138.44L406.548 1138.48L424.554 1152.3L442.518 1166.2L471.237 1156.9L471.25 1156.72L509.666 1144.43L538.36 1135L539.179 1134.73L539.126 1135.59L539.128 1135.6L539.209 1135.67L538.349 1151.25L537.539 1165.82L535.236 1205.96L535.219 1205.96L535.213 1206.12L533.424 1236.14L569.34 1263.93L569.344 1263.89L569.355 1263.91Z" stroke="#1B2F4E" stroke-miterlimit="10"/>
<path d="M397.625 1146.39L395.23 1186.59L395.231 1186.6L395.243 1186.61L393.456 1216.71L391.603 1252.33L391.33 1257.09L390.384 1272.99L389.509 1287.2L390.375 1287.86L406.445 1300.18L425.458 1314.9L425.461 1314.78L426.409 1315.5L454.972 1306.12L455.12 1306.07L455.118 1306.06L493.34 1293.6L522.06 1284.3L522.171 1284.39L522.179 1284.38L548.251 1275.82L560.37 1271.9L560.32 1271.86L560.432 1271.82L542.426 1258L524.462 1244.1L495.743 1253.4L495.73 1253.58L457.314 1265.87L428.62 1275.3L427.801 1275.57L427.854 1274.71L427.852 1274.7L427.771 1274.63L428.631 1259.05L429.442 1244.48L431.744 1204.34L431.762 1204.34L431.769 1204.18L433.557 1174.17L397.641 1146.37L397.636 1146.41L397.625 1146.39Z" stroke="#1B2F4E" stroke-miterlimit="10"/>
<path d="M418.867 977.109L462.307 999.309L520.216 1028.92L520.215 1028.91L520.216 1028.92L510.94 956.147L409.591 904.337L324.488 979.918L333.762 1052.68L382.393 1009.5L418.867 977.109Z" stroke="#1B2F4E" stroke-miterlimit="10"/>
<path d="M183.11 1098.58L216.782 1115.79L261.673 1138.74L254.481 1082.34L254.48 1082.33L175.918 1042.17L175.917 1042.16L175.918 1042.17L109.933 1100.76L117.125 1157.17L154.83 1123.69L183.11 1098.58Z" stroke="#1B2F4E" stroke-miterlimit="10"/>
<path d="M968.119 1214.79L1001.79 1232L1046.68 1254.95L1039.49 1198.53L960.926 1158.37L894.952 1216.96L902.134 1273.37L939.839 1239.89L968.119 1214.79Z" stroke="#1B2F4E" stroke-miterlimit="10"/>
<path d="M909.679 1525.43L944.113 1459.63L921.624 1417.39L890.132 1413.92L890.114 1413.92L904.91 1385.93L882.59 1343.59L808.817 1335.14L774.11 1400.79L796.43 1443.12L828.032 1446.74L813.374 1475.03L835.864 1517.28L909.67 1525.43L909.679 1525.43ZM901.94 1454.98L887.179 1483.18L855.548 1479.68L870.31 1451.49L901.94 1454.98ZM816.259 1405.6L831.136 1377.46L862.757 1381.09L847.879 1409.22L816.259 1405.6Z" stroke="#1B2F4E" stroke-miterlimit="10"/>
<path d="M1012.87 1305.31L1016.73 1235.43L1016.75 1235.41L1016.73 1235.41L1016.77 1235.39L1016.73 1235.36L980.954 1207.91L952.555 1217.23L952.408 1217.29L952.409 1217.29L914.406 1229.69L900.612 1234.15L893.158 1236.57L885.861 1238.93L885.85 1238.91L887.627 1208.95L916.19 1199.71L918.572 1159.76L851.924 1181.33L847.777 1251.26L847.819 1251.3L847.714 1251.33L865.327 1264.85L883.473 1278.9L883.472 1278.89L883.481 1278.89L896.393 1274.71L912.026 1269.65L912.039 1269.46L950.228 1257.24L978.696 1247.9L978.706 1247.9L977.051 1277.83L948.522 1287.19L946.315 1327.16L946.306 1327.16L1012.87 1305.31Z" stroke="#1B2F4E" stroke-miterlimit="10"/>
<path d="M942.392 1306.35L927.37 1289.42L927.361 1289.42L927.352 1289.42L916.098 1276.74L902.675 1261.84L900.898 1259.84L894.952 1253.14L889.652 1247.15L889.045 1247.24L889.044 1247.23L877.754 1248.72L864.349 1250.43L864.392 1250.48L863.73 1250.56L856.102 1265.65L856.066 1265.73L856.076 1265.74L845.833 1285.89L838.107 1301L838.036 1301.01L838.028 1301.02L831.072 1314.79L827.81 1321.16L827.846 1321.16L827.817 1321.22L840.465 1319.55L853.138 1317.93L860.855 1302.82L860.79 1302.74L871.168 1282.58L878.835 1267.43L879.051 1267L879.371 1267.36L879.38 1267.36L879.433 1267.35L885.287 1273.9L890.757 1280.01L905.799 1296.88L905.791 1296.89L905.845 1296.96L917.067 1309.6L942.394 1306.37L942.383 1306.35L942.392 1306.35Z" stroke="#1B2F4E" stroke-miterlimit="10"/>
<path d="M827.413 1327.91L842.435 1344.84L842.445 1344.85L842.454 1344.85L853.707 1357.52L867.13 1372.42L868.916 1374.42L874.853 1381.12L880.153 1387.11L880.761 1387.03L892.052 1385.55L905.457 1383.84L905.414 1383.78L906.075 1383.7L913.705 1368.61L913.739 1368.53L923.973 1348.38L931.699 1333.27L931.771 1333.26L931.778 1333.25L938.734 1319.48L941.995 1313.1L941.959 1313.1L941.988 1313.04L929.34 1314.71L916.667 1316.33L908.951 1331.44L909.015 1331.52L898.637 1351.68L890.97 1366.83L890.754 1367.26L890.436 1366.91L890.434 1366.9L890.372 1366.9L884.519 1360.37L879.048 1354.25L864.016 1337.39L864.015 1337.38L863.961 1337.31L852.738 1324.66L827.411 1327.89L827.431 1327.91L827.413 1327.91Z" stroke="#1B2F4E" stroke-miterlimit="10"/>
<path d="M776.935 1427.36L810.608 1444.57L855.498 1467.52L848.306 1411.11L769.743 1370.94L703.759 1429.54L710.951 1485.95L748.656 1452.47L776.935 1427.36Z" stroke="#1B2F4E" stroke-miterlimit="10"/>
</g>
</g>
<defs>
<clipPath id="clip0_134_29255">
<rect width="893" height="1667" fill="white"/>
</clipPath>
<clipPath id="clip1_134_29255">
<rect width="1998.64" height="1720.37" fill="white" transform="translate(0 256.856) rotate(-7.3838)"/>
</clipPath>
</defs>
</svg>
