<?xml version="1.0" encoding="UTF-8"?><svg id="Layer_2" xmlns="http://www.w3.org/2000/svg" xmlns:xlink="http://www.w3.org/1999/xlink" viewBox="0 0 127.99 72.97"><defs><style>.cls-1{fill:none;}.cls-1,.cls-2,.cls-3,.cls-4,.cls-5,.cls-6,.cls-7,.cls-8,.cls-9,.cls-10{stroke-width:0px;}.cls-2{fill:url(#linear-gradient);}.cls-3{fill:url(#linear-gradient-4);}.cls-4{fill:url(#linear-gradient-2);}.cls-5{fill:url(#linear-gradient-3);}.cls-6{fill:url(#linear-gradient-5);}.cls-7{fill:url(#linear-gradient-6);}.cls-8{fill:#4156e1;}.cls-9{fill:#fff;}.cls-10{fill:#efefef;}</style><linearGradient id="linear-gradient" x1="50.35" y1="53.3" x2="57.87" y2="48.42" gradientUnits="userSpaceOnUse"><stop offset=".18" stop-color="#efefef" stop-opacity="0"/><stop offset=".7" stop-color="#efefef"/></linearGradient><linearGradient id="linear-gradient-2" x1="3066.96" y1="-535.68" x2="3074.48" y2="-540.56" gradientTransform="translate(3144.35 -515.8) rotate(-180)" xlink:href="#linear-gradient"/><linearGradient id="linear-gradient-3" x1="48.69" y1="24.21" x2="43.84" y2="-3.31" gradientUnits="userSpaceOnUse"><stop offset="0" stop-color="#efefef" stop-opacity="0"/><stop offset="1" stop-color="#efefef"/></linearGradient><linearGradient id="linear-gradient-4" x1="3169.65" y1="24.21" x2="3164.8" y2="-3.31" gradientTransform="translate(3248.98) rotate(-180) scale(1 -1)" xlink:href="#linear-gradient-3"/><linearGradient id="linear-gradient-5" x1="136.13" y1="-1656.59" x2="131.28" y2="-1684.1" gradientTransform="translate(-87.58 -1607.81) scale(1 -1)" xlink:href="#linear-gradient-3"/><linearGradient id="linear-gradient-6" x1="2482.25" y1="-1656.57" x2="2477.4" y2="-1684.08" gradientTransform="translate(2561.7 -1607.81) rotate(-180)" xlink:href="#linear-gradient-3"/></defs><g id="Layer_1-2"><polygon class="cls-1" points="28.44 36.47 39.08 52.11 49.78 36.52 39.14 20.87 28.44 36.47"/><polygon class="cls-1" points="99.55 36.45 88.91 52.09 78.22 36.49 88.85 20.85 99.55 36.45"/><polygon class="cls-9" points="39.08 52.11 24.82 72.91 53.26 72.96 53.26 72.96 63.95 57.37 49.78 36.52 39.08 52.11"/><polygon class="cls-9" points="103.05 0 74.61 .06 74.61 .06 64.03 15.63 63.97 15.71 78.25 36.49 88.88 20.85 103.05 0 103.05 0"/><polygon class="cls-10" points="39.08 52.11 28.44 36.47 39.14 20.87 24.97 .02 0 36.41 0 36.41 0 36.41 24.82 72.91 53.26 72.97 53.26 72.96 24.82 72.91 39.08 52.11"/><polygon class="cls-10" points="88.91 52.09 99.55 36.45 88.85 20.85 103.02 0 127.99 36.39 127.99 36.39 127.99 36.39 103.17 72.89 74.73 72.95 74.73 72.94 103.17 72.89 88.91 52.09"/><polygon class="cls-9" points="44.61 44.05 39.08 52.11 24.82 72.91 53.26 72.96 53.26 72.96 58.81 64.88 56.92 62.16 44.61 44.05"/><polygon class="cls-2" points="49.61 36.67 44.44 44.2 56.75 62.31 58.64 65.04 63.79 57.53 49.61 36.67"/><polygon class="cls-4" points="78.14 36.51 83.3 28.98 71 10.87 69.11 8.14 63.96 15.65 78.14 36.51"/><polygon class="cls-9" points="88.91 52.09 78.22 36.49 64 15.65 53.41 .08 53.41 .08 24.97 .02 24.97 .02 24.97 .02 39.14 20.87 49.78 36.52 63.95 57.37 74.73 72.94 74.73 72.94 103.17 72.89 88.91 52.09"/><polygon class="cls-8" points="64 57.44 64.04 57.37 64 57.31 64 57.44"/><polygon class="cls-5" points="64 15.65 53.41 .08 53.41 .08 24.97 .02 24.97 .02 24.97 .02 39.14 20.87 39.15 20.88 67.57 20.88 64 15.65"/><polygon class="cls-3" points="64.02 15.65 74.61 .08 74.61 .08 103.05 .02 103.05 .02 103.05 .02 88.88 20.87 88.87 20.88 60.46 20.88 64.02 15.65"/><polygon class="cls-6" points="63.85 57.33 53.26 72.91 53.26 72.91 24.82 72.96 24.82 72.96 24.82 72.96 38.99 52.11 39 52.11 67.42 52.11 63.85 57.33"/><polygon class="cls-7" points="64.14 57.31 74.73 72.89 74.73 72.89 103.17 72.94 103.17 72.94 103.17 72.94 89 52.09 89 52.08 60.58 52.08 64.14 57.31"/></g></svg>