<svg width="59" height="33" viewBox="0 0 59 33" fill="none" xmlns="http://www.w3.org/2000/svg">
<g id="Layer_1" clip-path="url(#clip0_323_17869)">
<path id="Vector" d="M18.0155 23.5676L11.4414 32.9728L24.5525 33.0001L29.4796 25.9461L22.9425 16.5137L18.0155 23.5676Z" fill="white"/>
<path id="Vector_2" d="M47.5033 0L34.3922 0.0272352L29.5114 7.06754L29.4883 7.10839L36.067 16.5045L40.9663 9.43246L47.5033 0Z" fill="white"/>
<path id="Vector_3" d="M18.0151 23.5675L13.1111 16.4954L18.0428 9.44149L11.5104 0.0090332L0 16.4682L11.441 32.9727L24.5521 33L11.441 32.9727L18.0151 23.5675Z" fill="#EFEFEF"/>
<path id="Vector_4" d="M40.9848 23.5585L45.8887 16.4864L40.957 9.43246L47.4895 0L58.9998 16.4591L47.5589 32.9637L40.9848 23.5585Z" fill="#EFEFEF"/>
<path id="Vector_5" d="M20.5646 19.9226L18.0155 23.5676L11.4414 32.9728L24.5525 33L27.1063 29.3415L26.2365 28.1113L20.5646 19.9226Z" fill="white"/>
<path id="Vector_6" d="M29.502 25.9778L29.5205 25.9461L29.502 25.9188V25.9778Z" fill="#4156E1"/>
<path id="Vector_7" d="M29.5115 7.08111L34.3923 0.0362684L47.5034 0.0090332L40.9664 9.4415H27.8691L29.5115 7.08111Z" fill="url(#paint0_linear_323_17869)"/>
<path id="Vector_8" d="M29.4333 25.9279L24.5525 32.9727L11.4414 33L17.9738 23.5675H17.9785H31.0757L29.4333 25.9279Z" fill="url(#paint1_linear_323_17869)"/>
<path id="Vector_9" d="M22.9424 16.5136L29.5118 7.08118L36.0674 16.5046L29.4332 25.9279L22.9424 16.5136Z" fill="white"/>
</g>
<defs>
<linearGradient id="paint0_linear_323_17869" x1="36.5667" y1="10.9485" x2="38.7203" y2="-1.50744" gradientUnits="userSpaceOnUse">
<stop stop-color="#EFEFEF" stop-opacity="0"/>
<stop offset="1" stop-color="#EFEFEF"/>
</linearGradient>
<linearGradient id="paint1_linear_323_17869" x1="22.3781" y1="22.0605" x2="20.2246" y2="34.5164" gradientUnits="userSpaceOnUse">
<stop stop-color="#EFEFEF" stop-opacity="0"/>
<stop offset="1" stop-color="#EFEFEF"/>
</linearGradient>
<clipPath id="clip0_323_17869">
<rect width="59" height="33" fill="white"/>
</clipPath>
</defs>
</svg>
