<svg width="641" height="528" viewBox="0 0 641 528" fill="none" xmlns="http://www.w3.org/2000/svg">
<g filter="url(#filter0_d_220_1196)">
<g filter="url(#filter1_ddd_220_1196)">
<path d="M457.482 495.197L481.943 438.512L481.93 438.491L500.247 396.046L521.538 345.684L524.424 338.958L534.113 316.555L542.788 296.541L541.892 295.132L525.17 268.966L505.461 237.829L505.39 237.991L504.414 236.457L458.33 235.043L458.098 235.044L396.487 233.021L350.229 231.426L350.11 231.24L308.072 229.961L288.539 229.279L288.592 229.362L288.415 229.358L307.14 258.675L325.768 288.112L372.026 289.707L372.12 289.443L433.921 291.811L480.183 293.229L481.524 293.279L481.008 294.481L480.987 294.494L481.079 294.639L471.692 316.647L462.896 337.203L438.585 393.851L438.464 394.073L420.211 436.39L457.44 495.224L457.455 495.156L457.482 495.197Z" stroke="#1B2F4E" stroke-miterlimit="10" shape-rendering="crispEdges"/>
</g>
<g filter="url(#filter2_dd_220_1196)">
<path d="M471.026 503.081L495.487 446.396L495.474 446.375L513.791 403.93L535.082 353.568L537.968 346.842L547.657 324.439L556.332 304.425L555.436 303.016L538.714 276.85L519.006 245.713L518.934 245.875L517.959 244.341L471.874 242.926L471.642 242.928L410.031 240.905L363.773 239.31L363.655 239.124L321.616 237.845L302.083 237.163L302.136 237.246L301.959 237.242L320.684 266.559L339.312 295.996L385.57 297.591L385.664 297.327L447.466 299.695L493.727 301.113L495.069 301.163L494.552 302.365L494.531 302.378L494.623 302.523L485.236 324.531L476.44 345.087L452.129 401.735L452.009 401.957L433.756 444.274L470.985 503.108L471 503.04L471.026 503.081Z" fill="url(#paint0_linear_220_1196)" shape-rendering="crispEdges"/>
<path d="M471.026 503.081L495.487 446.396L495.474 446.375L513.791 403.93L535.082 353.568L537.968 346.842L547.657 324.439L556.332 304.425L555.436 303.016L538.714 276.85L519.006 245.713L518.934 245.875L517.959 244.341L471.874 242.926L471.642 242.928L410.031 240.905L363.773 239.31L363.655 239.124L321.616 237.845L302.083 237.163L302.136 237.246L301.959 237.242L320.684 266.559L339.312 295.996L385.57 297.591L385.664 297.327L447.466 299.695L493.727 301.113L495.069 301.163L494.552 302.365L494.531 302.378L494.623 302.523L485.236 324.531L476.44 345.087L452.129 401.735L452.009 401.957L433.756 444.274L470.985 503.108L471 503.04L471.026 503.081Z" stroke="url(#paint1_linear_220_1196)" stroke-miterlimit="10" shape-rendering="crispEdges"/>
</g>
<g filter="url(#filter3_f_220_1196)">
<path d="M559.704 303.226L557.393 304.812L560.054 303.931L557.502 305.092L560.276 304.687L557.562 305.387L560.364 305.47L557.569 305.688L560.314 306.256L557.524 305.985L560.128 307.021L557.428 306.27L559.813 307.743L557.284 306.534L559.377 308.399L557.096 306.769L558.833 308.969L556.87 306.968L558.199 309.436L556.613 307.125L557.494 309.786L556.333 307.235L556.738 310.008L556.038 307.294L555.955 310.096L555.737 307.301L555.169 310.046L555.44 307.256L554.404 309.861L555.155 307.16L553.682 309.545L554.891 307.016L553.026 309.109L554.656 306.828L552.456 308.566L554.457 306.602L551.989 307.932L554.3 306.346L551.639 307.226L554.19 306.065L551.416 306.47L554.131 305.77L551.329 305.687L554.124 305.47L551.379 304.901L554.169 305.172L551.564 304.136L554.265 304.887L551.88 303.414L554.409 304.623L552.316 302.758L554.597 304.388L552.859 302.188L554.823 304.189L553.493 301.721L555.079 304.032L554.199 301.371L555.36 303.923L554.955 301.149L555.654 303.863L555.737 301.061L555.955 303.856L556.524 301.111L556.253 303.901L557.289 301.296L556.538 303.997L558.011 301.612L556.802 304.141L558.667 302.048L557.037 304.329L559.237 302.592L557.236 304.555L559.704 303.226Z" fill="white"/>
</g>
<g filter="url(#filter4_f_220_1196)">
<path d="M472.401 502.074L471.598 502.625L472.522 502.32L471.636 502.723L472.6 502.582L471.657 502.825L472.63 502.854L471.659 502.93L472.613 503.127L471.643 503.033L472.548 503.393L471.61 503.132L472.439 503.644L471.56 503.224L472.287 503.872L471.495 503.306L472.098 504.07L471.416 503.375L471.878 504.232L471.327 503.429L471.633 504.354L471.23 503.467L471.371 504.431L471.127 503.488L471.099 504.461L471.023 503.49L470.825 504.444L470.92 503.475L470.56 504.379L470.821 503.441L470.309 504.27L470.729 503.391L470.081 504.118L470.647 503.326L469.883 503.93L470.578 503.248L469.721 503.709L470.524 503.158L469.599 503.464L470.486 503.061L469.522 503.202L470.465 502.959L469.491 502.93L470.462 502.854L469.509 502.657L470.478 502.751L469.573 502.391L470.511 502.652L469.683 502.14L470.561 502.56L469.834 501.912L470.627 502.478L470.023 501.714L470.705 502.409L470.243 501.552L470.794 502.355L470.489 501.43L470.892 502.317L470.751 501.353L470.994 502.296L471.023 501.323L471.099 502.293L471.296 501.34L471.202 502.309L471.562 501.404L471.301 502.343L471.813 501.514L471.393 502.393L472.04 501.665L471.474 502.458L472.239 501.854L471.543 502.536L472.401 502.074Z" fill="white"/>
</g>
<g filter="url(#filter5_f_220_1196)">
<path d="M444.242 298.311L443.101 299.094L444.415 298.659L443.155 299.232L444.524 299.032L443.184 299.378L444.568 299.419L443.188 299.526L444.543 299.807L443.165 299.673L444.451 300.185L443.118 299.814L444.296 300.541L443.047 299.944L444.08 300.865L442.954 300.06L443.812 301.147L442.843 300.159L443.499 301.377L442.716 300.236L443.151 301.55L442.578 300.29L442.777 301.66L442.432 300.319L442.391 301.703L442.283 300.323L442.003 301.678L442.137 300.301L441.625 301.587L441.996 300.253L441.269 301.431L441.865 300.182L440.945 301.216L441.749 300.089L440.663 300.947L441.651 299.978L440.433 300.634L441.574 299.851L440.26 300.286L441.52 299.713L440.15 299.913L441.49 299.567L440.107 299.526L441.487 299.419L440.132 299.138L441.509 299.272L440.223 298.76L441.557 299.131L440.379 298.404L441.628 299.001L440.594 298.08L441.72 298.885L440.863 297.799L441.832 298.787L441.176 297.568L441.959 298.709L441.524 297.395L442.097 298.655L441.897 297.286L442.243 298.626L442.284 297.242L442.391 298.622L442.672 297.267L442.538 298.644L443.05 297.358L442.679 298.692L443.406 297.514L442.809 298.763L443.73 297.73L442.925 298.856L444.011 297.998L443.023 298.967L444.242 298.311Z" fill="white"/>
</g>
<g filter="url(#filter6_ddd_220_1196)">
<path d="M488.453 510.458L512.914 453.772L512.901 453.751L531.218 411.306L552.509 360.945L555.395 354.219L565.084 331.815L573.759 311.802L572.863 310.392L556.141 284.227L536.432 253.089L536.361 253.251L535.385 251.717L489.301 250.303L489.069 250.305L427.458 248.282L381.2 246.687L381.082 246.5L339.043 245.222L319.51 244.539L319.563 244.622L319.386 244.619L338.111 273.935L356.739 303.373L402.997 304.968L403.091 304.704L464.892 307.072L511.154 308.49L512.496 308.539L511.979 309.741L511.958 309.754L512.05 309.9L502.663 331.908L493.867 352.464L469.556 409.112L469.436 409.334L451.183 451.651L488.411 510.484L488.427 510.417L488.453 510.458Z" stroke="url(#paint2_linear_220_1196)" stroke-miterlimit="10" shape-rendering="crispEdges"/>
</g>
</g>
<g filter="url(#filter7_ddd_220_1196)">
<path d="M278.363 76.2375L216.962 101.224L216.957 101.249L170.981 119.958L116.768 142.489L109.495 145.465L85.212 155.324L63.5041 164.116L63.1291 165.87L56.2349 198.492L47.8843 237.168L48.0612 237.097L47.6531 239.006L81.8721 274.781L82.0508 274.954L127.699 322.883L161.915 358.927L161.865 359.159L193.089 391.784L207.53 407.011L207.552 406.907L207.685 407.044L215.417 370.501L223.315 333.941L189.1 297.897L188.829 298.028L143.295 249.692L108.943 213.781L107.953 212.733L109.254 212.202L109.28 212.207L109.318 212.027L133.073 202.243L155.282 193.127L216.539 168.056L216.798 167.977L262.629 149.319L278.415 76.2485L278.352 76.2892L278.363 76.2375Z" stroke="#1B2F4E" stroke-miterlimit="10" shape-rendering="crispEdges"/>
</g>
<g filter="url(#filter8_dd_220_1196)">
<path d="M273.928 60.0052L212.528 84.9913L212.522 85.0171L166.546 103.725L112.333 126.256L105.06 129.233L80.7771 139.092L59.0692 147.884L58.6941 149.638L51.8 182.259L43.4494 220.935L43.6263 220.865L43.2181 222.774L77.4371 258.549L77.6159 258.722L123.264 306.651L157.48 342.694L157.43 342.927L188.654 375.552L203.095 390.778L203.117 390.675L203.25 390.811L210.982 354.269L218.88 317.708L184.665 281.665L184.394 281.796L138.86 233.459L104.508 197.549L103.518 196.501L104.819 195.97L104.845 195.975L104.883 195.795L128.638 186.011L150.847 176.895L212.104 151.824L212.363 151.745L258.194 133.086L273.98 60.0163L273.917 60.0569L273.928 60.0052Z" fill="url(#paint3_linear_220_1196)" shape-rendering="crispEdges"/>
<path d="M273.928 60.0052L212.528 84.9913L212.522 85.0171L166.546 103.725L112.333 126.256L105.06 129.233L80.7771 139.092L59.0692 147.884L58.6941 149.638L51.8 182.259L43.4494 220.935L43.6263 220.865L43.2181 222.774L77.4371 258.549L77.6159 258.722L123.264 306.651L157.48 342.694L157.43 342.927L188.654 375.552L203.095 390.778L203.117 390.675L203.25 390.811L210.982 354.269L218.88 317.708L184.665 281.665L184.394 281.796L138.86 233.459L104.508 197.549L103.518 196.501L104.819 195.97L104.845 195.975L104.883 195.795L128.638 186.011L150.847 176.895L212.104 151.824L212.363 151.745L258.194 133.086L273.98 60.0163L273.917 60.0569L273.928 60.0052Z" stroke="url(#paint4_linear_220_1196)" stroke-miterlimit="10" shape-rendering="crispEdges"/>
</g>
<g filter="url(#filter9_f_220_1196)">
<path d="M55.5846 146.264L58.5483 146.79L55.8479 145.461L58.6753 146.493L56.2467 144.715L58.8518 146.223L56.7689 144.05L59.0727 145.987L57.3988 143.485L59.3312 145.793L58.117 143.039L59.6193 145.647L58.9019 142.724L59.9285 145.553L59.7296 142.55L60.2492 145.515L60.5749 142.522L60.5718 145.532L61.4121 142.642L60.8863 145.606L62.2158 142.905L61.1834 145.733L62.9616 143.304L61.4539 145.909L63.6268 143.826L61.6896 146.13L64.1912 144.456L61.8834 146.389L64.6377 145.174L62.0294 146.677L64.9527 145.959L62.1231 146.986L65.1265 146.787L62.1618 147.307L65.1541 147.632L62.1441 147.629L65.0344 148.47L62.0707 147.944L64.7711 149.273L61.9438 148.241L64.3723 150.019L61.7672 148.511L63.8501 150.684L61.5463 148.747L63.2203 151.249L61.2879 148.941L62.502 151.695L60.9997 149.087L61.7171 152.01L60.6905 149.181L60.8894 152.184L60.3698 149.219L60.0442 152.212L60.0473 149.202L59.2069 152.092L59.7327 149.128L58.4032 151.829L59.4356 149.001L57.6574 151.43L59.1651 148.825L56.9922 150.908L58.9294 148.604L56.4278 150.278L58.7356 148.345L55.9813 149.559L58.5896 148.057L55.6664 148.775L58.4959 147.748L55.4925 147.947L58.4573 147.427L55.465 147.102L58.4749 147.105L55.5846 146.264Z" fill="white"/>
</g>
<g filter="url(#filter10_f_220_1196)">
<path d="M272.118 59.7406L273.148 59.9233L272.209 59.4613L273.192 59.8201L272.348 59.2022L273.253 59.7261L272.529 58.9711L273.33 59.6441L272.748 58.7749L273.42 59.5768L272.998 58.6198L273.52 59.5261L273.27 58.5104L273.627 59.4935L273.558 58.4499L273.739 59.4801L273.852 58.4404L273.851 59.4862L274.143 58.482L273.96 59.5118L274.422 58.5734L274.063 59.5559L274.681 58.712L274.157 59.6172L274.912 58.8935L274.239 59.694L275.108 59.1123L274.306 59.7838L275.263 59.3619L274.357 59.8839L275.373 59.6346L274.39 59.9913L275.433 59.9222L274.403 60.1027L275.443 60.2159L274.397 60.2148L275.401 60.5068L274.372 60.3241L275.31 60.7861L274.327 60.4273L275.171 61.0452L274.266 60.5213L274.99 61.2763L274.189 60.6033L274.771 61.4725L274.1 60.6706L274.521 61.6276L273.999 60.7213L274.249 61.737L273.892 60.7539L273.961 61.7975L273.781 60.7673L273.667 61.807L273.668 60.7612L273.376 61.7654L273.559 60.7356L273.097 61.674L273.456 60.6915L272.838 61.5354L273.362 60.6302L272.607 61.3539L273.28 60.5534L272.411 61.1351L273.213 60.4636L272.256 60.8855L273.162 60.3635L272.146 60.6128L273.129 60.2561L272.086 60.3252L273.116 60.1447L272.076 60.0315L273.122 60.0326L272.118 59.7406Z" fill="white"/>
</g>
<g filter="url(#filter11_f_220_1196)">
<path d="M140.286 236.945L141.75 237.205L140.416 236.549L141.812 237.058L140.613 236.18L141.899 236.925L140.871 235.852L142.008 236.808L141.182 235.573L142.136 236.713L141.537 235.353L142.278 236.641L141.924 235.197L142.431 236.594L142.333 235.111L142.589 236.575L142.75 235.098L142.749 236.584L143.164 235.157L142.904 236.62L143.561 235.287L143.051 236.683L143.929 235.484L143.184 236.77L144.257 235.742L143.301 236.879L144.536 236.053L143.396 237.007L144.757 236.407L143.469 237.149L144.912 236.795L143.515 237.302L144.998 237.204L143.534 237.46L145.012 237.621L143.525 237.619L144.952 238.034L143.489 237.775L144.822 238.431L143.426 237.921L144.625 238.8L143.339 238.055L144.368 239.128L143.23 238.171L144.057 239.407L143.102 238.267L143.702 239.627L142.96 238.339L143.314 239.783L142.807 238.386L142.906 239.869L142.649 238.405L142.488 239.882L142.49 238.396L142.075 239.823L142.334 238.36L141.678 239.693L142.188 238.297L141.31 239.496L142.054 238.21L140.981 239.238L141.938 238.101L140.702 238.927L141.842 237.973L140.482 238.573L141.77 237.831L140.326 238.185L141.724 237.678L140.24 237.776L141.705 237.52L140.227 237.359L141.713 237.36L140.286 236.945Z" fill="white"/>
</g>
<g filter="url(#filter12_ddd_220_1196)">
<path d="M266.139 41.2389L204.738 66.2249L204.732 66.2508L158.756 84.959L104.544 107.49L97.2707 110.466L72.9875 120.326L51.2796 129.118L50.9046 130.872L44.0104 163.493L35.6599 202.169L35.8367 202.099L35.4286 204.008L69.6476 239.782L69.8264 239.955L115.475 287.884L149.69 323.928L149.641 324.16L180.864 356.786L195.305 372.012L195.327 371.909L195.46 372.045L203.193 335.503L211.091 298.942L176.875 262.898L176.605 263.029L131.07 214.693L96.7186 178.782L95.7287 177.734L97.0293 177.203L97.0551 177.209L97.0937 177.028L120.848 167.244L143.057 158.128L204.314 133.058L204.574 132.978L250.405 114.32L266.19 41.2499L266.128 41.2905L266.139 41.2389Z" stroke="url(#paint5_linear_220_1196)" stroke-miterlimit="10" shape-rendering="crispEdges"/>
</g>
<defs>
<filter id="filter0_d_220_1196" x="283.489" y="228.746" width="294.835" height="291.03" filterUnits="userSpaceOnUse" color-interpolation-filters="sRGB">
<feFlood flood-opacity="0" result="BackgroundImageFix"/>
<feColorMatrix in="SourceAlpha" type="matrix" values="0 0 0 0 0 0 0 0 0 0 0 0 0 0 0 0 0 0 127 0" result="hardAlpha"/>
<feOffset dy="4"/>
<feGaussianBlur stdDeviation="2"/>
<feComposite in2="hardAlpha" operator="out"/>
<feColorMatrix type="matrix" values="0 0 0 0 0 0 0 0 0 0 0 0 0 0 0 0 0 0 0.25 0"/>
<feBlend mode="normal" in2="BackgroundImageFix" result="effect1_dropShadow_220_1196"/>
<feBlend mode="normal" in="SourceGraphic" in2="effect1_dropShadow_220_1196" result="shape"/>
</filter>
<filter id="filter1_ddd_220_1196" x="269.489" y="228.746" width="277.864" height="283.769" filterUnits="userSpaceOnUse" color-interpolation-filters="sRGB">
<feFlood flood-opacity="0" result="BackgroundImageFix"/>
<feColorMatrix in="SourceAlpha" type="matrix" values="0 0 0 0 0 0 0 0 0 0 0 0 0 0 0 0 0 0 127 0" result="hardAlpha"/>
<feOffset dx="-13" dy="11"/>
<feGaussianBlur stdDeviation="2.5"/>
<feColorMatrix type="matrix" values="0 0 0 0 0.027451 0 0 0 0 0.0470588 0 0 0 0 0.0784314 0 0 0 1 0"/>
<feBlend mode="normal" in2="BackgroundImageFix" result="effect1_dropShadow_220_1196"/>
<feColorMatrix in="SourceAlpha" type="matrix" values="0 0 0 0 0 0 0 0 0 0 0 0 0 0 0 0 0 0 127 0" result="hardAlpha"/>
<feOffset dy="4"/>
<feGaussianBlur stdDeviation="2"/>
<feComposite in2="hardAlpha" operator="out"/>
<feColorMatrix type="matrix" values="0 0 0 0 0 0 0 0 0 0 0 0 0 0 0 0 0 0 0.25 0"/>
<feBlend mode="normal" in2="effect1_dropShadow_220_1196" result="effect2_dropShadow_220_1196"/>
<feColorMatrix in="SourceAlpha" type="matrix" values="0 0 0 0 0 0 0 0 0 0 0 0 0 0 0 0 0 0 127 0" result="hardAlpha"/>
<feOffset dy="4"/>
<feGaussianBlur stdDeviation="2"/>
<feComposite in2="hardAlpha" operator="out"/>
<feColorMatrix type="matrix" values="0 0 0 0 0 0 0 0 0 0 0 0 0 0 0 0 0 0 0.25 0"/>
<feBlend mode="normal" in2="effect2_dropShadow_220_1196" result="effect3_dropShadow_220_1196"/>
<feBlend mode="normal" in="SourceGraphic" in2="effect3_dropShadow_220_1196" result="shape"/>
</filter>
<filter id="filter2_dd_220_1196" x="291.033" y="226.63" width="275.864" height="287.769" filterUnits="userSpaceOnUse" color-interpolation-filters="sRGB">
<feFlood flood-opacity="0" result="BackgroundImageFix"/>
<feColorMatrix in="SourceAlpha" type="matrix" values="0 0 0 0 0 0 0 0 0 0 0 0 0 0 0 0 0 0 127 0" result="hardAlpha"/>
<feOffset/>
<feGaussianBlur stdDeviation="5"/>
<feColorMatrix type="matrix" values="0 0 0 0 0.591667 0 0 0 0 0.64526 0 0 0 0 1 0 0 0 1 0"/>
<feBlend mode="normal" in2="BackgroundImageFix" result="effect1_dropShadow_220_1196"/>
<feColorMatrix in="SourceAlpha" type="matrix" values="0 0 0 0 0 0 0 0 0 0 0 0 0 0 0 0 0 0 127 0" result="hardAlpha"/>
<feOffset dy="4"/>
<feGaussianBlur stdDeviation="2"/>
<feComposite in2="hardAlpha" operator="out"/>
<feColorMatrix type="matrix" values="0 0 0 0 0 0 0 0 0 0 0 0 0 0 0 0 0 0 0.25 0"/>
<feBlend mode="normal" in2="effect1_dropShadow_220_1196" result="effect2_dropShadow_220_1196"/>
<feBlend mode="normal" in="SourceGraphic" in2="effect2_dropShadow_220_1196" result="shape"/>
</filter>
<filter id="filter3_f_220_1196" x="548.329" y="298.061" width="15.0348" height="15.0347" filterUnits="userSpaceOnUse" color-interpolation-filters="sRGB">
<feFlood flood-opacity="0" result="BackgroundImageFix"/>
<feBlend mode="normal" in="SourceGraphic" in2="BackgroundImageFix" result="shape"/>
<feGaussianBlur stdDeviation="1.5" result="effect1_foregroundBlur_220_1196"/>
</filter>
<filter id="filter4_f_220_1196" x="466.491" y="498.323" width="9.13855" height="9.13867" filterUnits="userSpaceOnUse" color-interpolation-filters="sRGB">
<feFlood flood-opacity="0" result="BackgroundImageFix"/>
<feBlend mode="normal" in="SourceGraphic" in2="BackgroundImageFix" result="shape"/>
<feGaussianBlur stdDeviation="1.5" result="effect1_foregroundBlur_220_1196"/>
</filter>
<filter id="filter5_f_220_1196" x="438.107" y="295.242" width="8.46045" height="8.46057" filterUnits="userSpaceOnUse" color-interpolation-filters="sRGB">
<feFlood flood-opacity="0" result="BackgroundImageFix"/>
<feBlend mode="normal" in="SourceGraphic" in2="BackgroundImageFix" result="shape"/>
<feGaussianBlur stdDeviation="1" result="effect1_foregroundBlur_220_1196"/>
</filter>
<filter id="filter6_ddd_220_1196" x="300.46" y="244.007" width="277.864" height="283.769" filterUnits="userSpaceOnUse" color-interpolation-filters="sRGB">
<feFlood flood-opacity="0" result="BackgroundImageFix"/>
<feColorMatrix in="SourceAlpha" type="matrix" values="0 0 0 0 0 0 0 0 0 0 0 0 0 0 0 0 0 0 127 0" result="hardAlpha"/>
<feOffset dx="-13" dy="11"/>
<feGaussianBlur stdDeviation="2.5"/>
<feColorMatrix type="matrix" values="0 0 0 0 0.027451 0 0 0 0 0.0470588 0 0 0 0 0.0784314 0 0 0 1 0"/>
<feBlend mode="normal" in2="BackgroundImageFix" result="effect1_dropShadow_220_1196"/>
<feColorMatrix in="SourceAlpha" type="matrix" values="0 0 0 0 0 0 0 0 0 0 0 0 0 0 0 0 0 0 127 0" result="hardAlpha"/>
<feOffset dy="4"/>
<feGaussianBlur stdDeviation="2"/>
<feComposite in2="hardAlpha" operator="out"/>
<feColorMatrix type="matrix" values="0 0 0 0 0 0 0 0 0 0 0 0 0 0 0 0 0 0 0.25 0"/>
<feBlend mode="normal" in2="effect1_dropShadow_220_1196" result="effect2_dropShadow_220_1196"/>
<feColorMatrix in="SourceAlpha" type="matrix" values="0 0 0 0 0 0 0 0 0 0 0 0 0 0 0 0 0 0 127 0" result="hardAlpha"/>
<feOffset dy="4"/>
<feGaussianBlur stdDeviation="2"/>
<feComposite in2="hardAlpha" operator="out"/>
<feColorMatrix type="matrix" values="0 0 0 0 0 0 0 0 0 0 0 0 0 0 0 0 0 0 0.25 0"/>
<feBlend mode="normal" in2="effect2_dropShadow_220_1196" result="effect3_dropShadow_220_1196"/>
<feBlend mode="normal" in="SourceGraphic" in2="effect3_dropShadow_220_1196" result="shape"/>
</filter>
<filter id="filter7_ddd_220_1196" x="29.1088" y="75.1696" width="254.051" height="348.894" filterUnits="userSpaceOnUse" color-interpolation-filters="sRGB">
<feFlood flood-opacity="0" result="BackgroundImageFix"/>
<feColorMatrix in="SourceAlpha" type="matrix" values="0 0 0 0 0 0 0 0 0 0 0 0 0 0 0 0 0 0 127 0" result="hardAlpha"/>
<feOffset dx="-13" dy="11"/>
<feGaussianBlur stdDeviation="2.5"/>
<feColorMatrix type="matrix" values="0 0 0 0 0.027451 0 0 0 0 0.0470588 0 0 0 0 0.0784314 0 0 0 1 0"/>
<feBlend mode="normal" in2="BackgroundImageFix" result="effect1_dropShadow_220_1196"/>
<feColorMatrix in="SourceAlpha" type="matrix" values="0 0 0 0 0 0 0 0 0 0 0 0 0 0 0 0 0 0 127 0" result="hardAlpha"/>
<feOffset dy="4"/>
<feGaussianBlur stdDeviation="2"/>
<feComposite in2="hardAlpha" operator="out"/>
<feColorMatrix type="matrix" values="0 0 0 0 0 0 0 0 0 0 0 0 0 0 0 0 0 0 0.25 0"/>
<feBlend mode="normal" in2="effect1_dropShadow_220_1196" result="effect2_dropShadow_220_1196"/>
<feColorMatrix in="SourceAlpha" type="matrix" values="0 0 0 0 0 0 0 0 0 0 0 0 0 0 0 0 0 0 127 0" result="hardAlpha"/>
<feOffset dy="4"/>
<feGaussianBlur stdDeviation="2"/>
<feComposite in2="hardAlpha" operator="out"/>
<feColorMatrix type="matrix" values="0 0 0 0 0 0 0 0 0 0 0 0 0 0 0 0 0 0 0.25 0"/>
<feBlend mode="normal" in2="effect2_dropShadow_220_1196" result="effect3_dropShadow_220_1196"/>
<feBlend mode="normal" in="SourceGraphic" in2="effect3_dropShadow_220_1196" result="shape"/>
</filter>
<filter id="filter8_dd_220_1196" x="32.6738" y="48.9373" width="252.051" height="352.895" filterUnits="userSpaceOnUse" color-interpolation-filters="sRGB">
<feFlood flood-opacity="0" result="BackgroundImageFix"/>
<feColorMatrix in="SourceAlpha" type="matrix" values="0 0 0 0 0 0 0 0 0 0 0 0 0 0 0 0 0 0 127 0" result="hardAlpha"/>
<feOffset/>
<feGaussianBlur stdDeviation="5"/>
<feColorMatrix type="matrix" values="0 0 0 0 0.591667 0 0 0 0 0.64526 0 0 0 0 1 0 0 0 1 0"/>
<feBlend mode="normal" in2="BackgroundImageFix" result="effect1_dropShadow_220_1196"/>
<feColorMatrix in="SourceAlpha" type="matrix" values="0 0 0 0 0 0 0 0 0 0 0 0 0 0 0 0 0 0 127 0" result="hardAlpha"/>
<feOffset dy="4"/>
<feGaussianBlur stdDeviation="2"/>
<feComposite in2="hardAlpha" operator="out"/>
<feColorMatrix type="matrix" values="0 0 0 0 0 0 0 0 0 0 0 0 0 0 0 0 0 0 0.25 0"/>
<feBlend mode="normal" in2="effect1_dropShadow_220_1196" result="effect2_dropShadow_220_1196"/>
<feBlend mode="normal" in="SourceGraphic" in2="effect2_dropShadow_220_1196" result="shape"/>
</filter>
<filter id="filter9_f_220_1196" x="52.465" y="139.522" width="15.6891" height="15.6892" filterUnits="userSpaceOnUse" color-interpolation-filters="sRGB">
<feFlood flood-opacity="0" result="BackgroundImageFix"/>
<feBlend mode="normal" in="SourceGraphic" in2="BackgroundImageFix" result="shape"/>
<feGaussianBlur stdDeviation="1.5" result="effect1_foregroundBlur_220_1196"/>
</filter>
<filter id="filter10_f_220_1196" x="269.076" y="55.4404" width="9.36664" height="9.36658" filterUnits="userSpaceOnUse" color-interpolation-filters="sRGB">
<feFlood flood-opacity="0" result="BackgroundImageFix"/>
<feBlend mode="normal" in="SourceGraphic" in2="BackgroundImageFix" result="shape"/>
<feGaussianBlur stdDeviation="1.5" result="effect1_foregroundBlur_220_1196"/>
</filter>
<filter id="filter11_f_220_1196" x="138.227" y="233.098" width="8.78467" height="8.78455" filterUnits="userSpaceOnUse" color-interpolation-filters="sRGB">
<feFlood flood-opacity="0" result="BackgroundImageFix"/>
<feBlend mode="normal" in="SourceGraphic" in2="BackgroundImageFix" result="shape"/>
<feGaussianBlur stdDeviation="1" result="effect1_foregroundBlur_220_1196"/>
</filter>
<filter id="filter12_ddd_220_1196" x="16.8843" y="40.1709" width="254.051" height="348.894" filterUnits="userSpaceOnUse" color-interpolation-filters="sRGB">
<feFlood flood-opacity="0" result="BackgroundImageFix"/>
<feColorMatrix in="SourceAlpha" type="matrix" values="0 0 0 0 0 0 0 0 0 0 0 0 0 0 0 0 0 0 127 0" result="hardAlpha"/>
<feOffset dx="-13" dy="11"/>
<feGaussianBlur stdDeviation="2.5"/>
<feColorMatrix type="matrix" values="0 0 0 0 0.027451 0 0 0 0 0.0470588 0 0 0 0 0.0784314 0 0 0 1 0"/>
<feBlend mode="normal" in2="BackgroundImageFix" result="effect1_dropShadow_220_1196"/>
<feColorMatrix in="SourceAlpha" type="matrix" values="0 0 0 0 0 0 0 0 0 0 0 0 0 0 0 0 0 0 127 0" result="hardAlpha"/>
<feOffset dy="4"/>
<feGaussianBlur stdDeviation="2"/>
<feComposite in2="hardAlpha" operator="out"/>
<feColorMatrix type="matrix" values="0 0 0 0 0 0 0 0 0 0 0 0 0 0 0 0 0 0 0.25 0"/>
<feBlend mode="normal" in2="effect1_dropShadow_220_1196" result="effect2_dropShadow_220_1196"/>
<feColorMatrix in="SourceAlpha" type="matrix" values="0 0 0 0 0 0 0 0 0 0 0 0 0 0 0 0 0 0 127 0" result="hardAlpha"/>
<feOffset dy="4"/>
<feGaussianBlur stdDeviation="2"/>
<feComposite in2="hardAlpha" operator="out"/>
<feColorMatrix type="matrix" values="0 0 0 0 0 0 0 0 0 0 0 0 0 0 0 0 0 0 0.25 0"/>
<feBlend mode="normal" in2="effect2_dropShadow_220_1196" result="effect3_dropShadow_220_1196"/>
<feBlend mode="normal" in="SourceGraphic" in2="effect3_dropShadow_220_1196" result="shape"/>
</filter>
<linearGradient id="paint0_linear_220_1196" x1="537.208" y1="274.343" x2="386.472" y2="370.175" gradientUnits="userSpaceOnUse">
<stop offset="0.0208333" stop-color="#070C14"/>
<stop offset="1" stop-color="#070C14" stop-opacity="0"/>
</linearGradient>
<linearGradient id="paint1_linear_220_1196" x1="490.743" y1="191.49" x2="468.146" y2="498.432" gradientUnits="userSpaceOnUse">
<stop stop-color="#4156E1"/>
<stop offset="0.359375" stop-color="#CAD1FF"/>
<stop offset="0.682292" stop-color="#4156E1"/>
<stop offset="1" stop-color="#7C8DFF"/>
</linearGradient>
<linearGradient id="paint2_linear_220_1196" x1="508.169" y1="198.867" x2="485.573" y2="505.809" gradientUnits="userSpaceOnUse">
<stop stop-color="#4156E1"/>
<stop offset="0.359375" stop-color="#CAD1FF"/>
<stop offset="0.682292" stop-color="#4156E1"/>
<stop offset="1" stop-color="#7C8DFF"/>
</linearGradient>
<linearGradient id="paint3_linear_220_1196" x1="51.0663" y1="185.312" x2="238.615" y2="225.414" gradientUnits="userSpaceOnUse">
<stop offset="0.0208333" stop-color="#070C14"/>
<stop offset="1" stop-color="#070C14" stop-opacity="0"/>
</linearGradient>
<linearGradient id="paint4_linear_220_1196" x1="24.2703" y1="283.725" x2="272.633" y2="65.7325" gradientUnits="userSpaceOnUse">
<stop stop-color="#4156E1"/>
<stop offset="0.359375" stop-color="#CAD1FF"/>
<stop offset="0.682292" stop-color="#4156E1"/>
<stop offset="1" stop-color="#7C8DFF"/>
</linearGradient>
<linearGradient id="paint5_linear_220_1196" x1="16.4807" y1="264.959" x2="264.844" y2="46.9662" gradientUnits="userSpaceOnUse">
<stop stop-color="#4156E1"/>
<stop offset="0.359375" stop-color="#CAD1FF"/>
<stop offset="0.682292" stop-color="#4156E1"/>
<stop offset="1" stop-color="#7C8DFF"/>
</linearGradient>
</defs>
</svg>
