<svg width="113" height="34" viewBox="0 0 113 34" fill="none" xmlns="http://www.w3.org/2000/svg">
<path d="M2.45341 8.056H19.0614C21.5414 8.056 23.4374 8.568 24.7494 9.592C26.0774 10.6 26.7414 12.048 26.7414 13.936C26.7414 15.824 26.0774 17.272 24.7494 18.28C23.4374 19.288 21.5414 19.792 19.0614 19.792H8.38141V25H2.45341V8.056ZM17.9334 16C18.8134 16 19.4854 15.824 19.9494 15.472C20.4294 15.104 20.6694 14.592 20.6694 13.936C20.6694 13.28 20.4294 12.776 19.9494 12.424C19.4854 12.056 18.8134 11.872 17.9334 11.872H8.38141V16H17.9334ZM29.0315 8.056H34.9595V14.824H37.8395L46.8155 8.056H54.3035L43.0235 16.624L54.5435 25H46.4795L38.1035 18.952H34.9595V25H29.0315V8.056ZM79.5742 25H65.0782C61.3822 25 58.5262 24.264 56.5102 22.792C54.5102 21.32 53.5102 19.232 53.5102 16.528C53.5102 13.808 54.5102 11.72 56.5102 10.264C58.5102 8.792 61.3662 8.056 65.0782 8.056H79.5742V12.064H65.6782C63.7582 12.064 62.2702 12.464 61.2142 13.264C60.1742 14.064 59.6542 15.176 59.6542 16.6C59.6542 18.024 60.1742 19.136 61.2142 19.936C62.2702 20.736 63.7582 21.136 65.6782 21.136H74.1022V18.376H65.6782V15.04H79.5742V25ZM111.537 25H104.193L96.825 18.544H96.009L88.641 25H81.297L90.801 16.48L81.537 8.056H88.905L96.009 14.344H96.801L103.929 8.056H111.297L102.033 16.456L111.537 25Z" fill="white"/>
</svg>
